<svg width="122" height="36" viewBox="0 0 122 36" fill="none" xmlns="http://www.w3.org/2000/svg">
<rect y="0.00012207" width="121.387" height="35.9999" rx="4" fill="black"/>
<path fill-rule="evenodd" clip-rule="evenodd" d="M4.4958 0.00012207H116.891C119.374 0.00012207 121.387 2.01483 121.387 4.50011V31.5C121.387 33.9853 119.374 36 116.891 36H4.4958C2.01284 36 0 33.9853 0 31.5V4.50011C0 2.01483 2.01284 0.00012207 4.4958 0.00012207ZM120.668 4.50014C120.668 2.41251 118.977 0.720151 116.891 0.720151H4.49608C2.41039 0.720151 0.719602 2.41251 0.719602 4.50014V31.5001C0.719602 33.5877 2.41039 35.28 4.49608 35.28H116.891C118.977 35.28 120.668 33.5877 120.668 31.5001V4.50014Z" fill="#A6A6A6"/>
<path fill-rule="evenodd" clip-rule="evenodd" d="M42.926 20.7541V22.3741H46.8104C46.7495 23.1371 46.4326 23.8571 45.9113 24.4171C45.1233 25.2206 44.032 25.6523 42.9081 25.6051C40.5244 25.6051 38.5921 23.6709 38.5921 21.2851C38.5921 18.8992 40.5244 16.9651 42.9081 16.9651C44.0054 16.9488 45.0651 17.3659 45.8573 18.1261L46.9992 16.9831C45.9166 15.9113 44.4485 15.321 42.926 15.3451C40.7491 15.2603 38.7003 16.3744 37.5867 18.2485C36.4731 20.1227 36.4731 22.4565 37.5867 24.3306C38.7003 26.2048 40.7491 27.3189 42.926 27.2341C44.4818 27.2962 45.99 26.6904 47.0712 25.5691C48.0154 24.5308 48.5185 23.1653 48.4739 21.7621C48.4771 21.4243 48.45 21.087 48.3929 20.7541H42.926ZM52.8884 19.5751C50.7729 19.5801 49.062 21.3006 49.067 23.4181C49.072 25.5355 50.7909 27.248 52.9064 27.2431C55.0219 27.2381 56.7328 25.5175 56.7278 23.4001C56.7426 22.378 56.3423 21.3937 55.6185 20.6727C54.8947 19.9516 53.9094 19.5555 52.8884 19.5751ZM57.4473 23.4181C57.4424 21.3006 59.1533 19.5801 61.2687 19.5751C62.2898 19.5555 63.275 19.9516 63.9988 20.6727C64.7226 21.3937 65.123 22.378 65.1082 23.4001C65.1131 25.5175 63.4022 27.2381 61.2867 27.2431C59.1713 27.248 57.4523 25.5355 57.4473 23.4181ZM59.0138 24.4067C59.4244 25.267 60.3186 25.7886 61.2688 25.7221C61.8652 25.7082 62.4308 25.4538 62.8371 25.0166C63.2434 24.5794 63.4561 23.9965 63.4268 23.4001C63.4245 22.4467 62.8401 21.5916 61.9533 21.2438C61.0664 20.896 60.0572 21.1261 59.4084 21.8242C58.7597 22.5223 58.6031 23.5464 59.0138 24.4067ZM50.6334 24.4067C51.044 25.267 51.9383 25.7886 52.8885 25.7221C53.4849 25.7082 54.0504 25.4538 54.4567 25.0166C54.8631 24.5794 55.0757 23.9965 55.0465 23.4001C55.0441 22.4467 54.4598 21.5916 53.5729 21.2438C52.686 20.896 51.6769 21.1261 51.0281 21.8242C50.3793 22.5223 50.2228 23.5464 50.6334 24.4067ZM80.394 19.5751C81.8848 19.6301 83.1869 20.6004 83.667 22.0141L83.8558 22.4101L78.7396 24.5251C79.0582 25.2578 79.7941 25.7191 80.5918 25.6861C81.3605 25.6936 82.0756 25.2929 82.4711 24.6331L83.7749 25.5331C82.8461 26.9413 81.102 27.5696 79.4897 27.0767C77.8774 26.5838 76.7816 25.0874 76.7974 23.4001C76.7352 22.407 77.0866 21.4324 77.7679 20.7078C78.4493 19.9832 79.3999 19.5732 80.394 19.5751ZM78.4515 23.292C78.4147 22.7273 78.6065 22.1715 78.9838 21.7499C79.361 21.3283 79.8918 21.0765 80.4567 21.0511C81.049 21.0149 81.6053 21.3376 81.8684 21.87L78.4515 23.292ZM75.979 27.0001H74.2976V15.7501H75.979V27.0001ZM71.5463 20.4301H71.4834C70.9751 19.8507 70.2396 19.522 69.4693 19.5301C67.4283 19.6291 65.8244 21.3143 65.8244 23.3596C65.8244 25.4048 67.4283 27.09 69.4693 27.189C70.2411 27.2045 70.9796 26.8745 71.4834 26.289H71.5463V26.838C71.5463 28.305 70.7641 29.088 69.5052 29.088C68.6452 29.0691 67.8817 28.5324 67.572 27.729L66.1154 28.332C66.6667 29.718 68.015 30.6201 69.5052 30.6C71.4744 30.6 73.1019 29.439 73.1019 26.613V19.8001H71.5463V20.4301ZM67.4377 23.4046C67.4377 24.6309 68.3904 25.6458 69.6132 25.7221C70.1976 25.6996 70.7473 25.4387 71.1345 25.0001C71.5218 24.5615 71.7128 23.9833 71.6633 23.4001C71.7077 22.8189 71.5145 22.2446 71.1281 21.8086C70.7416 21.3726 70.195 21.1122 69.6132 21.0871C68.3904 21.1634 67.4377 22.1783 67.4377 23.4046ZM91.5434 15.7501H87.5152V27H89.1966V22.734H91.5434C92.8496 22.828 94.0988 22.1837 94.7805 21.0645C95.4622 19.9453 95.4622 18.5388 94.7805 17.4196C94.0988 16.3004 92.8496 15.6561 91.5434 15.7501ZM89.1966 21.1501H91.5434L91.5794 21.1681C92.2668 21.1681 92.9021 20.801 93.2458 20.2051C93.5895 19.6092 93.5895 18.875 93.2458 18.2791C92.9021 17.6832 92.2668 17.3161 91.5794 17.3161H89.1966V21.1501ZM101.92 19.5391C100.668 19.4618 99.4908 20.1377 98.9255 21.2581L100.409 21.8791C100.715 21.3264 101.318 21.0056 101.947 21.0601C102.378 21.0097 102.811 21.1347 103.149 21.4072C103.488 21.6797 103.702 22.0767 103.745 22.5091V22.6171C103.204 22.3326 102.603 22.1843 101.992 22.1851C100.391 22.1851 98.7547 23.0851 98.7547 24.723C98.7867 25.4265 99.1022 26.0869 99.6292 26.5533C100.156 27.0197 100.85 27.2524 101.551 27.198C102.41 27.2456 103.228 26.8259 103.691 26.1H103.745V27H105.364V22.6711C105.364 20.7001 103.871 19.5571 101.956 19.5571L101.92 19.5391ZM100.4 24.7501C100.4 25.425 101.165 25.704 101.713 25.704L101.749 25.722C102.766 25.7018 103.611 24.9328 103.727 23.9221C103.261 23.6614 102.733 23.5309 102.199 23.5441C101.354 23.5441 100.4 23.8501 100.4 24.7501ZM111.262 19.8L109.338 24.678H109.284L107.288 19.8H105.489L108.483 26.622L106.775 30.411H108.528L113.132 19.8H111.262ZM97.8289 27.0001H96.1564V15.7501H97.8289V27.0001Z" fill="white"/>
<path d="M9.38741 6.78614C9.09111 7.1368 8.93992 7.58756 8.9648 8.04614V27.9541C8.93421 28.4134 9.0861 28.8663 9.38741 29.2141L9.45035 29.2861L20.591 18.1351V17.8651L9.45035 6.72314L9.38741 6.78614Z" fill="url(#paint0_linear)"/>
<path d="M24.2769 21.852L20.5903 18.1351V17.8651L24.2769 14.1481L24.3578 14.2021L28.7727 16.7041C30.0315 17.4151 30.0315 18.5851 28.7727 19.3051L24.3758 21.807L24.2769 21.852Z" fill="url(#paint1_linear)"/>
<path d="M24.3852 21.798L20.5907 18.0001L9.38721 29.214C9.91145 29.6811 10.6939 29.7076 11.2485 29.277L24.3852 21.798Z" fill="url(#paint2_linear)"/>
<path d="M24.3852 14.2021L11.2485 6.73213C10.6973 6.29538 9.91222 6.31816 9.38721 6.78613L20.5907 18.0001L24.3852 14.2021Z" fill="url(#paint3_linear)"/>
<path opacity="0.2" d="M24.2773 21.7171L11.2485 29.1421C10.7163 29.5441 9.98231 29.5441 9.45015 29.1421L9.38721 29.2051L9.45015 29.2771C9.98231 29.6791 10.7163 29.6791 11.2485 29.2771L24.3852 21.7981L24.2773 21.7171Z" fill="black"/>
<path opacity="0.12" d="M9.38712 29.0881C9.0983 28.7311 8.95676 28.2771 8.99149 27.8191V27.9541C8.96089 28.4134 9.11278 28.8663 9.41409 29.2141L9.47703 29.1511L9.38712 29.0881Z" fill="black"/>
<path opacity="0.12" d="M28.7731 19.1701L24.2773 21.717L24.3583 21.798L28.7731 19.2961C29.304 19.0714 29.6697 18.5742 29.7263 18.0001C29.6123 18.5194 29.2585 18.9537 28.7731 19.1701Z" fill="black"/>
<path opacity="0.25" d="M11.2487 6.85814L28.7734 16.8301C29.2587 17.0464 29.6125 17.4807 29.7265 18.0001C29.6699 17.426 29.3042 16.9288 28.7734 16.7041L11.2487 6.73214C9.99888 6.01214 8.96484 6.60614 8.96484 8.04613V8.18113C8.99182 6.74114 9.99888 6.14714 11.2487 6.85814Z" fill="white"/>
<path fill-rule="evenodd" clip-rule="evenodd" d="M37.0278 6.21014H38.7722C39.768 6.21014 40.6882 6.74191 41.1862 7.60514C41.6841 8.46837 41.6841 9.5319 41.1862 10.3951C40.6882 11.2584 39.768 11.7901 38.7722 11.7901H37.0278V6.21014ZM40.1879 10.4195C40.56 10.0453 40.7492 9.52633 40.7054 9.00013C40.7343 8.47182 40.5459 7.9547 40.1839 7.56913C39.8027 7.21289 39.2929 7.02763 38.7722 7.05613H37.873V10.9441H38.7722C39.2981 10.9855 39.8157 10.7937 40.1879 10.4195Z" fill="white"/>
<path d="M42.3862 6.21014H43.2584V11.7901H42.3862V6.21014Z" fill="white"/>
<path d="M47.2239 9.00011C47.0492 8.87142 46.8625 8.7599 46.6664 8.66711C46.4866 8.58611 46.2618 8.50511 45.9921 8.41511C45.727 8.33955 45.4774 8.21767 45.2548 8.05511C45.1132 7.95708 45.0291 7.79542 45.03 7.62311C45.0292 7.43173 45.1193 7.25137 45.2727 7.13712C45.4529 6.9984 45.6749 6.92537 45.9021 6.93012C46.1286 6.92057 46.3513 6.99062 46.5316 7.12812C46.68 7.23275 46.7879 7.38528 46.8373 7.56011V7.65911L47.6465 7.32612V7.24512C47.534 6.92922 47.3306 6.65367 47.0621 6.45312C46.724 6.19809 46.3069 6.07061 45.8842 6.09312C45.4224 6.07566 44.9716 6.2368 44.6253 6.54312C44.3162 6.81676 44.1394 7.21008 44.1398 7.62311C44.1307 7.99076 44.2739 8.3458 44.5354 8.60411C44.8613 8.88523 45.2451 9.0911 45.6594 9.20711C46.0109 9.29921 46.345 9.44818 46.6485 9.64811C46.8396 9.79914 46.9439 10.0349 46.9272 10.2781C46.9372 10.5024 46.832 10.7162 46.6485 10.8451C46.4389 10.9952 46.1868 11.074 45.9291 11.0701C45.6589 11.0688 45.399 10.966 45.2008 10.7821C44.9826 10.6014 44.8281 10.3553 44.7602 10.0801V9.98111L43.96 10.3051V10.3771C44.0698 10.8374 44.3451 11.241 44.7332 11.5111C45.0857 11.7619 45.5057 11.9 45.9381 11.9071C46.1608 11.9102 46.3826 11.8767 46.5945 11.8081C46.8085 11.7468 47.0117 11.6526 47.1969 11.5291C47.388 11.3929 47.545 11.2142 47.6555 11.0071C47.8663 10.5377 47.8663 10.0005 47.6555 9.53111C47.5607 9.31928 47.4118 9.13615 47.2239 9.00011Z" fill="white"/>
<path fill-rule="evenodd" clip-rule="evenodd" d="M48.6357 6.21012H50.5599C51.0316 6.19529 51.4902 6.3666 51.8368 6.68712C52.1753 7.00212 52.3677 7.44394 52.3677 7.90661C52.3677 8.36929 52.1753 8.8111 51.8368 9.12611C51.4969 9.44004 51.0493 9.61087 50.5869 9.60311H49.5349V11.7901H48.6357V6.21012ZM51.2165 8.49614C51.3656 8.33703 51.4518 8.12914 51.4593 7.91114H51.4503C51.445 7.69001 51.3586 7.47855 51.2075 7.31714C51.047 7.14063 50.8163 7.04494 50.5781 7.05614H49.5081V8.75714H50.5871C50.8252 8.76834 51.056 8.67265 51.2165 8.49614Z" fill="white"/>
<path fill-rule="evenodd" clip-rule="evenodd" d="M53.5089 6.9391C54.0395 6.376 54.7861 6.06793 55.559 6.09311C56.3288 6.07053 57.0716 6.37839 57.6001 6.9391C58.6985 8.09317 58.6985 9.90703 57.6001 11.0611C56.4698 12.1906 54.6392 12.1906 53.5089 11.0611C52.4196 9.90342 52.4196 8.09678 53.5089 6.9391ZM56.9708 10.4851C57.3591 10.0907 57.5673 9.55337 57.5463 9.00011C57.5673 8.44685 57.3591 7.90948 56.9708 7.51511C56.6011 7.14193 56.0977 6.93201 55.5726 6.93201C55.0475 6.93201 54.5442 7.14193 54.1744 7.51511C53.4084 8.35667 53.4084 9.64355 54.1744 10.4851C54.5442 10.8583 55.0475 11.0682 55.5726 11.0682C56.0977 11.0682 56.6011 10.8583 56.9708 10.4851Z" fill="white"/>
<path d="M62.6802 9.45913L62.6982 10.2241L60.1896 6.21014H59.2095V11.7901H60.0817V8.33414L60.0637 7.57814L62.6622 11.7451L62.6892 11.7901H63.5524V6.21014H62.6802V9.45913Z" fill="white"/>
<path d="M64.605 6.21014H65.4772V11.7901H64.605V6.21014Z" fill="white"/>
<path fill-rule="evenodd" clip-rule="evenodd" d="M69.5862 8.9011C69.758 8.80261 69.9031 8.66357 70.0088 8.49611C70.1551 8.28166 70.2306 8.02671 70.2246 7.76711C70.2333 7.34011 70.0521 6.9313 69.7301 6.65111C69.418 6.36043 69.0054 6.20233 68.5792 6.21011H66.5381V11.7901H68.6781C69.1257 11.7936 69.5585 11.63 69.892 11.3311C70.2271 11.036 70.4147 10.6077 70.4045 10.1611C70.4077 9.86296 70.313 9.57201 70.1347 9.3331C69.9883 9.14798 69.8004 8.99999 69.5862 8.9011ZM69.1366 8.29815C68.9932 8.45203 68.789 8.53442 68.5791 8.52315H67.4372V7.05616H68.6061C68.8105 7.04652 69.0085 7.12908 69.1456 7.28116C69.4257 7.56219 69.4257 8.01712 69.1456 8.29815H69.1366ZM68.714 10.9441C68.9325 10.9538 69.1438 10.8645 69.2894 10.7011C69.4439 10.5559 69.5344 10.3552 69.5412 10.1431C69.5407 9.94045 69.4599 9.74623 69.3164 9.60315C69.1591 9.43385 68.9358 9.3418 68.705 9.35115H67.4372V10.9441H68.714Z" fill="white"/>
<path d="M72.0314 6.21014H71.1592V11.7901H74.3692V10.9441H72.0314V6.21014Z" fill="white"/>
<path d="M75.062 11.7901H78.3979V10.9441H75.9342V9.41413H78.1551V8.58614H75.9342V7.05614H78.3979V6.21014H75.062V11.7901Z" fill="white"/>
<path d="M81.104 11.7901H84.4399V10.9441H81.9762V9.41413H84.1971V8.58614H81.9762V7.05614H84.4399V6.21014H81.104V11.7901Z" fill="white"/>
<path d="M88.8101 6.21014V9.45913L88.8281 10.2241L86.3284 6.21014H85.3394V11.7901H86.2115V8.33414L86.1936 7.57814L88.7921 11.7451L88.8191 11.7901H89.6823V6.21014H88.8101Z" fill="white"/>
<defs>
<linearGradient id="paint0_linear" x1="15.7097" y1="-6.79659" x2="-2.13248" y2="-2.05174" gradientUnits="userSpaceOnUse">
<stop stop-color="#00A0FF"/>
<stop offset="0.01" stop-color="#00A1FF"/>
<stop offset="0.26" stop-color="#00BEFF"/>
<stop offset="0.51" stop-color="#00D2FF"/>
<stop offset="0.76" stop-color="#00DFFF"/>
<stop offset="1" stop-color="#00E3FF"/>
</linearGradient>
<linearGradient id="paint1_linear" x1="30.4182" y1="8.8198" x2="8.66746" y2="8.8198" gradientUnits="userSpaceOnUse">
<stop stop-color="#FFE000"/>
<stop offset="0.41" stop-color="#FFBD00"/>
<stop offset="0.78" stop-color="#FFA500"/>
<stop offset="1" stop-color="#FF9C00"/>
</linearGradient>
<linearGradient id="paint2_linear" x1="9.07026" y1="12.1676" x2="-5.30139" y2="36.275" gradientUnits="userSpaceOnUse">
<stop stop-color="#FF3A44"/>
<stop offset="1" stop-color="#C31162"/>
</linearGradient>
<linearGradient id="paint3_linear" x1="0.642803" y1="3.68917" x2="7.0557" y2="14.4549" gradientUnits="userSpaceOnUse">
<stop stop-color="#32A071"/>
<stop offset="0.07" stop-color="#2DA771"/>
<stop offset="0.48" stop-color="#15CF74"/>
<stop offset="0.8" stop-color="#06E775"/>
<stop offset="1" stop-color="#00F076"/>
</linearGradient>
</defs>
</svg>
