<svg width="80" height="80" viewBox="0 0 80 80" fill="none" xmlns="http://www.w3.org/2000/svg">
<path d="M69.0667 26.6667H21.6C20.7163 26.6667 20 27.383 20 28.2667V60.6667C20 61.5504 20.7163 62.2667 21.6 62.2667H69.0667C69.9503 62.2667 70.6667 61.5504 70.6667 60.6667V28.2667C70.6667 27.383 69.9503 26.6667 69.0667 26.6667Z" fill="url(#paint0_linear_2951_9342)"/>
<path d="M63.7332 21.3333H16.2665C15.3828 21.3333 14.6665 22.0497 14.6665 22.9333V55.3333C14.6665 56.217 15.3828 56.9333 16.2665 56.9333H63.7332C64.6168 56.9333 65.3332 56.217 65.3332 55.3333V22.9333C65.3332 22.0497 64.6168 21.3333 63.7332 21.3333Z" fill="#D4EDFC"/>
<path d="M63.7332 21.3333H45.3332L26.3999 56.9333H63.7332C64.1576 56.9333 64.5646 56.7648 64.8646 56.4647C65.1647 56.1646 65.3332 55.7577 65.3332 55.3333V22.9333C65.3332 22.509 65.1647 22.102 64.8646 21.8019C64.5646 21.5019 64.1576 21.3333 63.7332 21.3333Z" fill="url(#paint1_linear_2951_9342)"/>
<path d="M16.2665 21.3333H63.7332C64.1575 21.3333 64.5645 21.5019 64.8645 21.8019C65.1646 22.102 65.3332 22.509 65.3332 22.9333V26.2666H14.6665V22.9333C14.6665 22.509 14.8351 22.102 15.1351 21.8019C15.4352 21.5019 15.8422 21.3333 16.2665 21.3333Z" fill="#043263"/>
<path d="M65.3333 22.9333C65.3333 22.509 65.1647 22.102 64.8647 21.8019C64.5646 21.5019 64.1576 21.3333 63.7333 21.3333H45.312L42.688 26.2666H65.3333V22.9333Z" fill="url(#paint2_linear_2951_9342)"/>
<path d="M17.1999 24.7333C17.7154 24.7333 18.1333 24.3154 18.1333 23.8C18.1333 23.2845 17.7154 22.8666 17.1999 22.8666C16.6845 22.8666 16.2666 23.2845 16.2666 23.8C16.2666 24.3154 16.6845 24.7333 17.1999 24.7333Z" fill="#DA3951"/>
<path d="M17.6386 22.976L16.7612 24.624C16.9798 24.7403 17.2356 24.7651 17.4724 24.6928C17.7092 24.6205 17.9076 24.4572 18.0239 24.2386C18.1402 24.0201 18.165 23.7643 18.0927 23.5275C18.0205 23.2907 17.8571 23.0923 17.6386 22.976Z" fill="url(#paint3_linear_2951_9342)"/>
<path d="M20.2663 24.7333C20.7818 24.7333 21.1997 24.3154 21.1997 23.8C21.1997 23.2845 20.7818 22.8666 20.2663 22.8666C19.7509 22.8666 19.333 23.2845 19.333 23.8C19.333 24.3154 19.7509 24.7333 20.2663 24.7333Z" fill="#F8CD50"/>
<path d="M19.8278 24.624L20.7052 22.976C20.4866 22.8597 20.2308 22.8349 19.994 22.9072C19.7572 22.9794 19.5588 23.1428 19.4425 23.3613C19.3262 23.5799 19.3014 23.8357 19.3737 24.0725C19.4459 24.3093 19.6093 24.5077 19.8278 24.624Z" fill="url(#paint4_linear_2951_9342)"/>
<path d="M23.3332 24.7333C23.8487 24.7333 24.2666 24.3154 24.2666 23.8C24.2666 23.2845 23.8487 22.8666 23.3332 22.8666C22.8178 22.8666 22.3999 23.2845 22.3999 23.8C22.3999 24.3154 22.8178 24.7333 23.3332 24.7333Z" fill="#2DCCCD"/>
<path d="M23.7719 22.976L22.8945 24.624C23.1131 24.7403 23.3689 24.7651 23.6057 24.6928C23.8425 24.6205 24.0409 24.4572 24.1572 24.2386C24.2735 24.0201 24.2983 23.7643 24.226 23.5275C24.1538 23.2907 23.9904 23.0923 23.7719 22.976Z" fill="url(#paint5_linear_2951_9342)"/>
<path d="M59.5747 31.6H20.4253C20.1904 31.6 20 31.7904 20 32.0253V35.6946C20 35.9295 20.1904 36.12 20.4253 36.12H59.5747C59.8096 36.12 60 35.9295 60 35.6946V32.0253C60 31.7904 59.8096 31.6 59.5747 31.6Z" fill="#49A5E6"/>
<path d="M31.5747 38.5986H20.4253C20.1904 38.5986 20 38.7891 20 39.024V42.6933C20 42.9282 20.1904 43.1186 20.4253 43.1186H31.5747C31.8096 43.1186 32 42.9282 32 42.6933V39.024C32 38.7891 31.8096 38.5986 31.5747 38.5986Z" fill="#49A5E6"/>
<path d="M59.5745 38.5986H35.0918C34.8569 38.5986 34.6665 38.7891 34.6665 39.024V42.6933C34.6665 42.9282 34.8569 43.1186 35.0918 43.1186H59.5745C59.8094 43.1186 59.9998 42.9282 59.9998 42.6933V39.024C59.9998 38.7891 59.8094 38.5986 59.5745 38.5986Z" fill="#49A5E6"/>
<path d="M59.4827 45.568H45.0081C44.7223 45.568 44.4907 45.7996 44.4907 46.0853V50.22C44.4907 50.5057 44.7223 50.7373 45.0081 50.7373H59.4827C59.7684 50.7373 60.0001 50.5057 60.0001 50.22V46.0853C60.0001 45.7996 59.7684 45.568 59.4827 45.568Z" fill="#28AD68"/>
<path d="M51.6547 49.7334C51.6 49.7336 51.5458 49.7229 51.4952 49.7021C51.4447 49.6813 51.3987 49.6507 51.36 49.612L50.4787 48.7307C50.4384 48.693 50.4059 48.6478 50.3832 48.5975C50.3605 48.5472 50.348 48.4929 50.3464 48.4378C50.3448 48.3826 50.3541 48.3277 50.3739 48.2762C50.3936 48.2247 50.4234 48.1776 50.4615 48.1377C50.4996 48.0977 50.5452 48.0657 50.5957 48.0436C50.6462 48.0214 50.7006 48.0094 50.7558 48.0084C50.811 48.0074 50.8658 48.0173 50.9171 48.0376C50.9684 48.0579 51.0152 48.0882 51.0547 48.1267L51.0694 48.1414L51.6547 48.7267L53.4227 46.96C53.4966 46.8776 53.6002 46.828 53.7107 46.822C53.8213 46.816 53.9296 46.8541 54.012 46.928C54.0944 47.0019 54.1441 47.1055 54.1501 47.2161C54.1561 47.3266 54.1179 47.435 54.044 47.5174L54.012 47.5494L51.9507 49.612C51.9118 49.6507 51.8656 49.6814 51.8148 49.7022C51.764 49.723 51.7096 49.7336 51.6547 49.7334Z" fill="white"/>
<defs>
<linearGradient id="paint0_linear_2951_9342" x1="32.636" y1="20.5867" x2="58.0307" y2="68.3467" gradientUnits="userSpaceOnUse">
<stop stop-color="#192647" stop-opacity="0.5"/>
<stop offset="1" stop-color="#192647" stop-opacity="0"/>
</linearGradient>
<linearGradient id="paint1_linear_2951_9342" x1="65.3332" y1="39.1333" x2="26.3999" y2="39.1333" gradientUnits="userSpaceOnUse">
<stop stop-color="#043263" stop-opacity="0.1"/>
<stop offset="1" stop-color="#043263" stop-opacity="0"/>
</linearGradient>
<linearGradient id="paint2_linear_2951_9342" x1="65.3333" y1="23.8" x2="42.688" y2="23.8" gradientUnits="userSpaceOnUse">
<stop stop-color="#072146" stop-opacity="0.8"/>
<stop offset="1" stop-color="#072146" stop-opacity="0.1"/>
</linearGradient>
<linearGradient id="paint3_linear_2951_9342" x1="18.1332" y1="23.8546" x2="16.7612" y2="23.8546" gradientUnits="userSpaceOnUse">
<stop stop-color="#043263" stop-opacity="0.3"/>
<stop offset="1" stop-color="#043263" stop-opacity="0"/>
</linearGradient>
<linearGradient id="paint4_linear_2951_9342" x1="19.5918" y1="23.1547" x2="20.4438" y2="24.0067" gradientUnits="userSpaceOnUse">
<stop stop-color="white" stop-opacity="0.6"/>
<stop offset="0.85" stop-color="white" stop-opacity="0.2"/>
</linearGradient>
<linearGradient id="paint5_linear_2951_9342" x1="24.2665" y1="23.8546" x2="22.8945" y2="23.8546" gradientUnits="userSpaceOnUse">
<stop stop-color="#028484" stop-opacity="0.6"/>
<stop offset="1" stop-color="#028484" stop-opacity="0"/>
</linearGradient>
</defs>
</svg>
