<svg width="112" height="112" viewBox="0 0 112 112" fill="none" xmlns="http://www.w3.org/2000/svg">
<path d="M96.6933 37.3333H30.24C29.0029 37.3333 28 38.3362 28 39.5733V84.9333C28 86.1705 29.0029 87.1733 30.24 87.1733H96.6933C97.9305 87.1733 98.9333 86.1705 98.9333 84.9333V39.5733C98.9333 38.3362 97.9305 37.3333 96.6933 37.3333Z" fill="url(#paint0_linear)"/>
<path d="M89.2265 29.8666H22.7732C21.5361 29.8666 20.5332 30.8695 20.5332 32.1066V77.4666C20.5332 78.7038 21.5361 79.7066 22.7732 79.7066H89.2265C90.4637 79.7066 91.4665 78.7038 91.4665 77.4666V32.1066C91.4665 30.8695 90.4637 29.8666 89.2265 29.8666Z" fill="#D4EDFC"/>
<path d="M89.2266 29.8666H63.4666L36.96 79.7066H89.2266C89.8207 79.7066 90.3905 79.4707 90.8106 79.0506C91.2306 78.6305 91.4666 78.0607 91.4666 77.4666V32.1066C91.4666 31.5126 91.2306 30.9428 90.8106 30.5227C90.3905 30.1026 89.8207 29.8666 89.2266 29.8666Z" fill="url(#paint1_linear)"/>
<path d="M22.7732 29.8666H89.2265C89.8206 29.8666 90.3904 30.1026 90.8105 30.5227C91.2305 30.9428 91.4665 31.5126 91.4665 32.1066V36.7733H20.5332V32.1066C20.5332 31.5126 20.7692 30.9428 21.1893 30.5227C21.6094 30.1026 22.1791 29.8666 22.7732 29.8666Z" fill="#043263"/>
<path d="M91.4661 32.1066C91.4661 31.5126 91.2301 30.9428 90.8101 30.5227C90.39 30.1026 89.8202 29.8666 89.2261 29.8666H63.4363L59.7627 36.7733H91.4661V32.1066Z" fill="url(#paint2_linear)"/>
<path d="M24.0801 34.6266C24.8018 34.6266 25.3868 34.0416 25.3868 33.32C25.3868 32.5983 24.8018 32.0133 24.0801 32.0133C23.3585 32.0133 22.7734 32.5983 22.7734 33.32C22.7734 34.0416 23.3585 34.6266 24.0801 34.6266Z" fill="#DA3951"/>
<path d="M24.6941 32.1663L23.4658 34.4735C23.7718 34.6364 24.1299 34.6711 24.4614 34.5699C24.7929 34.4687 25.0707 34.24 25.2336 33.9341C25.3964 33.6281 25.4311 33.27 25.3299 32.9385C25.2288 32.6069 25 32.3292 24.6941 32.1663Z" fill="url(#paint3_linear)"/>
<path d="M28.3731 34.6266C29.0947 34.6266 29.6798 34.0416 29.6798 33.32C29.6798 32.5983 29.0947 32.0133 28.3731 32.0133C27.6514 32.0133 27.0664 32.5983 27.0664 33.32C27.0664 34.0416 27.6514 34.6266 28.3731 34.6266Z" fill="#F8CD50"/>
<path d="M27.7592 34.4736L28.9874 32.1664C28.6815 32.0035 28.3233 31.9689 27.9918 32.07C27.6603 32.1712 27.3826 32.3999 27.2197 32.7059C27.0568 33.0118 27.0221 33.37 27.1233 33.7015C27.2245 34.033 27.4532 34.3107 27.7592 34.4736Z" fill="url(#paint4_linear)"/>
<path d="M32.667 34.6266C33.3887 34.6266 33.9737 34.0416 33.9737 33.32C33.9737 32.5983 33.3887 32.0133 32.667 32.0133C31.9454 32.0133 31.3604 32.5983 31.3604 33.32C31.3604 34.0416 31.9454 34.6266 32.667 34.6266Z" fill="#2DCCCD"/>
<path d="M33.281 32.1663L32.0527 34.4735C32.3587 34.6364 32.7168 34.6711 33.0483 34.5699C33.3798 34.4687 33.6576 34.24 33.8205 33.9341C33.9833 33.6281 34.018 33.27 33.9168 32.9385C33.8157 32.6069 33.587 32.3292 33.281 32.1663Z" fill="url(#paint5_linear)"/>
<path d="M83.4045 44.24H28.5955C28.2666 44.24 28 44.5066 28 44.8355V49.9725C28 50.3014 28.2666 50.568 28.5955 50.568H83.4045C83.7334 50.568 84 50.3014 84 49.9725V44.8355C84 44.5066 83.7334 44.24 83.4045 44.24Z" fill="#49A5E6"/>
<path d="M44.2045 54.0381H28.5955C28.2666 54.0381 28 54.3047 28 54.6336V59.7707C28 60.0995 28.2666 60.3661 28.5955 60.3661H44.2045C44.5334 60.3661 44.8 60.0995 44.8 59.7707V54.6336C44.8 54.3047 44.5334 54.0381 44.2045 54.0381Z" fill="#49A5E6"/>
<path d="M83.4044 54.0381H49.1287C48.7998 54.0381 48.5332 54.3047 48.5332 54.6336V59.7707C48.5332 60.0995 48.7998 60.3661 49.1287 60.3661H83.4044C83.7333 60.3661 83.9999 60.0995 83.9999 59.7707V54.6336C83.9999 54.3047 83.7333 54.0381 83.4044 54.0381Z" fill="#49A5E6"/>
<path d="M83.2759 63.7952H63.0114C62.6114 63.7952 62.2871 64.1194 62.2871 64.5194V70.308C62.2871 70.708 62.6114 71.0323 63.0114 71.0323H83.2759C83.6759 71.0323 84.0002 70.708 84.0002 70.308V64.5194C84.0002 64.1194 83.6759 63.7952 83.2759 63.7952Z" fill="#28AD68"/>
<path d="M72.3163 69.6267C72.2397 69.627 72.1638 69.6121 72.093 69.583C72.0222 69.5538 71.9579 69.511 71.9037 69.4568L70.6699 68.223C70.6134 68.1703 70.568 68.1069 70.5362 68.0365C70.5044 67.9661 70.4869 67.8901 70.4846 67.8129C70.4824 67.7357 70.4955 67.6588 70.5231 67.5867C70.5508 67.5145 70.5925 67.4486 70.6458 67.3927C70.6991 67.3368 70.763 67.292 70.8337 67.261C70.9044 67.2299 70.9806 67.2132 71.0578 67.2118C71.1351 67.2103 71.2118 67.2242 71.2836 67.2527C71.3555 67.2811 71.4209 67.3235 71.4763 67.3774L71.4968 67.3979L72.3163 68.2174L74.7915 65.744C74.895 65.6287 75.04 65.5592 75.1947 65.5508C75.3495 65.5424 75.5012 65.5958 75.6166 65.6992C75.7319 65.8027 75.8014 65.9478 75.8098 66.1025C75.8182 66.2572 75.7648 66.409 75.6614 66.5243L75.6166 66.5691L72.7307 69.4568C72.6762 69.511 72.6115 69.5539 72.5404 69.5831C72.4693 69.6122 72.3931 69.627 72.3163 69.6267Z" fill="white"/>
<defs>
<linearGradient id="paint0_linear" x1="45.6904" y1="28.8213" x2="81.243" y2="95.6853" gradientUnits="userSpaceOnUse">
<stop stop-color="#192647" stop-opacity="0.5"/>
<stop offset="1" stop-color="#192647" stop-opacity="0"/>
</linearGradient>
<linearGradient id="paint1_linear" x1="91.4666" y1="54.7866" x2="36.96" y2="54.7866" gradientUnits="userSpaceOnUse">
<stop stop-color="#043263" stop-opacity="0.1"/>
<stop offset="1" stop-color="#043263" stop-opacity="0"/>
</linearGradient>
<linearGradient id="paint2_linear" x1="91.4661" y1="33.32" x2="59.7627" y2="33.32" gradientUnits="userSpaceOnUse">
<stop stop-color="#072146" stop-opacity="0.8"/>
<stop offset="1" stop-color="#072146" stop-opacity="0.1"/>
</linearGradient>
<linearGradient id="paint3_linear" x1="25.3866" y1="33.3965" x2="23.4658" y2="33.3965" gradientUnits="userSpaceOnUse">
<stop stop-color="#043263" stop-opacity="0.3"/>
<stop offset="1" stop-color="#043263" stop-opacity="0"/>
</linearGradient>
<linearGradient id="paint4_linear" x1="27.4288" y1="32.4165" x2="28.6216" y2="33.6093" gradientUnits="userSpaceOnUse">
<stop stop-color="white" stop-opacity="0.6"/>
<stop offset="0.85" stop-color="white" stop-opacity="0.2"/>
</linearGradient>
<linearGradient id="paint5_linear" x1="33.9735" y1="33.3965" x2="32.0527" y2="33.3965" gradientUnits="userSpaceOnUse">
<stop stop-color="#028484" stop-opacity="0.6"/>
<stop offset="1" stop-color="#028484" stop-opacity="0"/>
</linearGradient>
</defs>
</svg>
