<svg width="60" height="60" viewBox="0 0 60 60" fill="none" xmlns="http://www.w3.org/2000/svg">
<path d="M58.6999 49.7111C58.6926 47.6615 58.2373 45.6382 57.3659 43.7831C57.3279 43.7031 57.2909 43.6231 57.2529 43.5461C57.1779 43.3901 57.1019 43.2391 57.0269 43.0941C56.9889 43.0221 56.9509 42.9501 56.9129 42.8811C56.5739 42.2521 56.2429 41.7331 55.9779 41.3341C55.9129 41.2341 55.8459 41.1411 55.7779 41.0471V41.0401C55.7089 40.9461 55.6369 40.8541 55.5619 40.7631C55.4109 40.5791 55.2489 40.4011 55.0739 40.2261C53.9609 39.1171 52.3189 38.1591 49.5739 36.8261C49.3523 36.787 49.133 36.736 48.9169 36.6731C49.3549 36.5071 50.3669 36.1041 50.3669 36.1041C50.1325 35.4149 50.005 34.6939 49.9889 33.9661C50.0159 32.4231 50.9839 29.1191 50.5839 25.4261C50.2419 22.2691 48.7999 16.6331 43.2089 16.6331C38.5559 16.6331 35.0339 20.4641 35.0339 24.8661C35.0454 25.538 35.1184 26.2075 35.2519 26.8661C35.2829 28.0141 35.5749 29.5831 35.7519 30.8991C35.0604 30.7226 34.3521 30.6204 33.6389 30.5941C33.5389 30.5941 33.4449 30.5891 33.3479 30.5871H33.2389C32.7729 30.5871 32.3099 30.5871 31.9489 30.6121C31.9029 30.6121 31.8659 30.6121 31.8409 30.6171L31.4079 27.9701L31.3849 27.8341C31.4169 27.7891 31.4479 27.7441 31.4779 27.7001C31.9609 26.9884 32.3125 26.1958 32.5159 25.3601C32.5499 25.1971 32.5919 25.0341 32.6359 24.8711C32.7167 24.8262 32.7913 24.7711 32.8579 24.7071C33.3259 24.2822 33.6765 23.7439 33.8759 23.1441C34.0599 22.4661 34.1559 21.2531 33.6759 21.0341C33.5896 20.9978 33.4941 20.9898 33.4029 21.0111C33.4319 20.7981 33.4559 20.5881 33.4759 20.3851C33.7604 20.0669 33.9638 19.6848 34.0689 19.2711C34.2119 18.6881 34.1209 18.1351 33.7619 17.1481C33.2199 15.6551 32.9489 14.9081 32.4249 14.3411C31.5779 13.4231 30.4999 13.2341 28.3489 12.8341C26.3339 12.4591 25.3259 12.2721 24.5429 12.8661C23.6819 13.5191 23.4689 14.7011 23.4209 15.4411C23.4044 15.4448 23.389 15.4523 23.3759 15.4631C23.3071 15.4167 23.2283 15.3873 23.1459 15.3771C22.4679 15.3021 21.7459 16.7501 21.4559 17.7621C21.2619 18.4381 21.0259 19.2621 21.3369 20.1161C21.45 20.3803 21.588 20.6331 21.7489 20.8711C21.7284 20.8718 21.708 20.8745 21.6879 20.8791C21.5493 20.9265 21.4349 21.0268 21.3699 21.1581C20.8699 21.9821 21.6749 23.6971 21.8099 23.9771C21.8789 24.1101 22.1819 24.6631 22.7239 24.8631C22.8043 24.8944 22.8873 24.9185 22.9719 24.9351C23.0649 25.2451 23.1769 25.5771 23.3109 25.9271C23.3519 26.0271 23.3989 26.1271 23.4519 26.2381C23.6394 26.6218 23.856 26.9905 24.0999 27.3411C24.2119 27.5021 24.3469 27.6951 24.5109 27.9021C24.4296 28.8134 24.3489 29.7244 24.2689 30.6351L24.2459 30.6181C24.1984 30.6102 24.1501 30.6069 24.1019 30.6081C23.7419 30.5851 23.2779 30.5831 22.8119 30.5831H22.6999C22.5999 30.5831 22.5049 30.5831 22.4089 30.5901C18.4789 30.7421 15.9839 33.0161 14.8089 34.6131C14.3357 35.2529 13.9015 35.9208 13.5089 36.6131C12.8321 37.7354 12.3221 38.9501 11.9949 40.2191C11.8133 40.948 11.7028 41.6928 11.6649 42.4431C11.6419 42.7871 11.6299 43.1151 11.6279 43.4301C11.6159 44.1231 11.6459 47.1471 12.9809 48.9431C14.1809 50.5571 16.2449 50.6101 17.9809 50.3901L26.3499 49.3321L27.2229 49.2221C27.2169 49.3831 27.2129 49.5461 27.2129 49.7121C27.2129 50.4041 27.0129 53.0991 28.3519 54.8941C29.5519 56.5091 31.0039 56.8311 32.7399 56.6121L41.0999 55.5531L42.0889 55.4281L42.9529 55.3181L53.1749 56.6111C53.2829 56.6241 53.3909 56.6361 53.4969 56.6451C53.7089 56.6641 53.9179 56.6731 54.1209 56.6721C54.1719 56.6721 54.2209 56.6721 54.2729 56.6721L54.4239 56.6651C54.7171 56.6483 55.0079 56.6024 55.2919 56.5281L55.4319 56.4881C56.2159 56.2471 56.9249 55.7541 57.5619 54.8961C58.8999 53.1001 58.6999 50.4001 58.6999 49.7111Z" fill="url(#paint0_linear)"/>
<path d="M27.3677 29.517C27.2517 29.709 25.8297 31.372 23.2527 31.488C20.7867 31.599 19.2937 29.745 19.1367 29.542L19.8277 21.724L26.1277 21.972L26.5087 24.266L27.3677 29.517Z" fill="#C29678"/>
<path d="M25.8567 24.367C25.4457 25.488 24.8987 26.167 24.4887 26.567C23.4107 27.624 22.4287 27.636 20.9767 28.855C20.5083 29.2409 20.0834 29.6769 19.7097 30.155C19.6097 30.066 19.5097 29.955 19.4027 29.847C19.3207 29.758 19.2027 29.63 19.1387 29.547C19.3687 26.941 19.5967 24.447 19.8277 21.847L26.1277 22.094L25.8567 24.367Z" fill="#B28A6F"/>
<path d="M17.8376 18.06C17.8376 18.06 17.2766 17.06 16.7846 17.175C16.646 17.2224 16.5316 17.3226 16.4666 17.454C15.9666 18.278 16.7716 19.993 16.9066 20.273C16.9756 20.406 17.2786 20.959 17.8206 21.159C18.0281 21.2514 18.2609 21.2705 18.4806 21.213C18.5609 21.1901 18.6367 21.1536 18.7046 21.105C19.2996 20.531 17.8376 18.06 17.8376 18.06Z" fill="#B28A6F"/>
<path d="M27.7568 17.755C27.9048 17.621 28.4158 17.168 28.7728 17.33C29.2558 17.549 29.1598 18.761 28.9728 19.44C28.7737 20.0384 28.4242 20.5756 27.9578 21C27.831 21.1299 27.6659 21.2158 27.4868 21.245C27.4494 21.2514 27.4112 21.2514 27.3738 21.245C27.2288 21.205 27.2408 20.441 27.7568 17.755Z" fill="#B28A6F"/>
<path d="M23.0799 9.93103C22.1152 9.88704 21.1561 10.0992 20.2999 10.546C19.6121 10.908 19.0054 11.4065 18.5169 12.011C17.5929 13.461 17.3869 14.678 17.3429 15.411C17.3139 15.895 17.3539 16.411 17.4329 17.444C17.4783 18.2612 17.5765 19.0746 17.7269 19.879C17.886 20.6768 18.1125 21.4596 18.4039 22.219C18.4449 22.319 18.4919 22.419 18.5449 22.53C18.7343 22.9167 18.9533 23.2882 19.1999 23.641C19.5527 24.1819 19.9803 24.6701 20.4699 25.091C20.9539 25.491 21.6379 26.058 22.6759 26.171C23.4647 26.2459 24.2565 26.0635 24.9329 25.651C25.7559 25.129 26.2249 24.515 26.5799 23.996C27.0629 23.2843 27.4145 22.4918 27.6179 21.656C27.7879 20.846 28.1179 20.049 28.2279 19.081C28.3609 17.895 28.2279 16.704 28.2279 15.723C28.1162 14.9854 27.9192 14.2632 27.6409 13.571C27.441 13.0787 27.1995 12.6043 26.9189 12.153C26.4823 11.5033 25.9033 10.9615 25.2259 10.569C24.5698 10.1926 23.8351 9.97419 23.0799 9.93103Z" fill="#C29678"/>
<path d="M17.4859 18.0571C17.4859 18.0571 19.3969 13.5921 19.0759 12.5491C18.7549 11.5061 18.4759 11.7591 18.4759 11.7591C18.4071 11.7127 18.3283 11.6832 18.2459 11.6731C17.5679 11.5981 16.8459 13.0461 16.5559 14.0581C16.3619 14.7341 16.1259 15.5581 16.4369 16.4121C16.6599 17.0291 17.8579 18.5911 17.4889 18.0571H17.4859Z" fill="#004283"/>
<path d="M18.5073 12.2889C18.5073 12.2889 19.7513 15.2529 27.1143 14.6569C27.1143 14.6569 28.0883 15.8779 28.2143 18.9029C28.3203 18.4459 28.4143 17.9519 28.4893 17.4229C28.5253 17.1683 28.5547 16.9209 28.5773 16.6809C28.8618 16.3628 29.0652 15.9806 29.1703 15.5669C29.3133 14.9839 29.2223 14.4309 28.8633 13.4439C28.3213 11.9509 28.0503 11.2039 27.5263 10.6369C26.6753 9.71894 25.6003 9.52994 23.4463 9.12994C21.4313 8.75494 20.4233 8.56794 19.6403 9.16194C18.5003 10.0299 18.5003 11.8339 18.5073 12.2889Z" fill="#004283"/>
<path d="M39.5282 39.729C39.5282 39.414 39.5142 39.086 39.4912 38.742C39.4533 37.9917 39.3428 37.2469 39.1612 36.518C38.834 35.2489 38.324 34.0342 37.6472 32.912C37.2529 32.2196 36.8171 31.5517 36.3422 30.912C35.1642 29.312 32.6692 27.041 28.7422 26.889C28.6102 26.883 28.4772 26.88 28.3422 26.879H28.3032C27.9982 26.879 26.9032 26.895 26.9032 26.911C26.8802 27.998 25.9482 29.234 24.5352 29.759C23.6248 30.1003 22.6216 30.1003 21.7112 29.759C20.2972 29.234 19.3652 27.998 19.3422 26.911C19.3422 26.895 18.2512 26.882 17.9422 26.879H17.9032C17.7692 26.879 17.6362 26.879 17.5032 26.889C13.5732 27.041 11.0782 29.315 9.90317 30.912C9.42991 31.5518 8.99578 32.2197 8.60317 32.912C7.92638 34.0342 7.41637 35.2489 7.08917 36.518C6.90755 37.2469 6.79704 37.9917 6.75917 38.742C6.73617 39.086 6.72417 39.414 6.72217 39.729C6.71017 40.422 6.74017 43.446 8.07517 45.242C9.27517 46.856 11.3392 46.909 13.0752 46.689L23.9172 45.319C26.9628 45.994 30.0526 46.4518 33.1632 46.689H33.1782C34.9132 46.909 36.9782 46.856 38.1782 45.242C39.5102 43.446 39.5402 40.422 39.5282 39.729Z" fill="#002E65"/>
<path opacity="0.4" d="M30.5111 34.41C29.4061 37.161 29.1821 37.944 29.1821 37.944L29.4051 38.559L30.0051 39.197L32.7831 39.005L35.3301 29.731L35.1201 29.558C35.0751 29.522 35.0301 29.486 34.9841 29.451C34.8721 29.362 31.5401 31.846 30.5111 34.41Z" fill="#182548"/>
<path d="M14.3003 35.8579C14.1083 37.5039 14.0383 39.0299 14.2003 40.3229L13.4003 40.0909C13.3083 38.6319 13.6583 37.2269 14.3003 35.8579Z" fill="#182548"/>
<path d="M32.9002 35.2619C32.5402 35.1709 31.1282 36.9069 30.0822 38.2759L30.1942 37.9219L31.5472 35.9169L31.5632 35.8929C31.6144 35.8314 31.6391 35.752 31.6318 35.6723C31.6244 35.5926 31.5858 35.5191 31.5242 35.4679C31.4627 35.4167 31.3834 35.3921 31.3037 35.3994C31.224 35.4067 31.1504 35.4454 31.0992 35.5069L29.2332 37.3299L29.2002 37.3629L29.1602 37.4399L27.9692 39.7509L32.8192 40.3509C33.4302 39.7509 33.9142 39.1879 34.0662 38.8509C34.5302 38.1589 33.1562 35.3259 32.9002 35.2619Z" fill="#C29678"/>
<path d="M26.1721 39.526L28.7401 36.265C28.7752 36.2202 28.7969 36.1663 28.8026 36.1096C28.8082 36.0529 28.7976 35.9958 28.7721 35.945L28.2891 34.986C28.2699 34.9478 28.2591 34.9061 28.2573 34.8634C28.2556 34.8208 28.2629 34.7783 28.2789 34.7387C28.2949 34.6991 28.3192 34.6634 28.3501 34.634C28.381 34.6046 28.4178 34.582 28.4581 34.568L29.3441 34.257C29.4107 34.2343 29.4672 34.1889 29.5038 34.1288C29.5404 34.0686 29.5546 33.9975 29.5441 33.928L28.4511 26.8829C27.8841 26.8829 27.3091 26.8829 26.9081 26.9179L24.0811 39.266L26.1721 39.526Z" fill="#004283"/>
<path d="M16.5771 41.55L21.4431 45.631L23.9201 45.318L16.5771 41.55Z" fill="#182548"/>
<path d="M22.1122 39.021L24.0812 39.266L26.9052 26.918L23.1412 29.667L19.3442 26.918L22.1122 39.021Z" fill="white"/>
<path d="M16.9052 34.2571L17.7912 34.5681C17.8315 34.5822 17.8683 34.6047 17.8992 34.6342C17.9301 34.6636 17.9543 34.6993 17.9703 34.7389C17.9863 34.7784 17.9937 34.8209 17.9919 34.8636C17.9902 34.9062 17.9794 34.948 17.9602 34.9861L17.4772 35.9451C17.4516 35.996 17.441 36.0531 17.4467 36.1098C17.4524 36.1664 17.474 36.2203 17.5092 36.2651L19.4312 38.7071C20.3298 38.7646 21.2247 38.8694 22.1122 39.0211L19.3442 26.9211C18.9442 26.8861 18.3682 26.8861 17.8022 26.8861L16.7082 33.9311C16.6982 33.9999 16.7124 34.0699 16.7483 34.1294C16.7842 34.1888 16.8397 34.234 16.9052 34.2571Z" fill="#004283"/>
<path d="M22.5216 32.725L22.1116 39.025L24.0806 39.27L24.1656 38.898L23.7596 32.729L24.8226 31.343C24.8467 31.3118 24.8644 31.2761 24.8746 31.238C24.8849 31.2 24.8875 31.1602 24.8824 31.1211C24.8773 31.082 24.8645 31.0443 24.8448 31.0102C24.8251 30.976 24.7989 30.9461 24.7676 30.922L23.1446 29.67L21.5206 30.918C21.4894 30.9421 21.4631 30.972 21.4434 31.0062C21.4237 31.0403 21.411 31.078 21.4058 31.1171C21.4007 31.1562 21.4034 31.196 21.4136 31.234C21.4239 31.2721 21.4416 31.3078 21.4656 31.339L22.5216 32.725Z" fill="#1BCCCE"/>
<path opacity="0.4" d="M32.8999 35.2619C32.5399 35.1709 31.1279 36.9069 30.0819 38.2759L30.1939 37.9219L31.5469 35.9169L31.5629 35.8929C31.6141 35.8314 31.6388 35.752 31.6314 35.6723C31.6241 35.5926 31.5854 35.5191 31.5239 35.4679C31.4624 35.4167 31.383 35.3921 31.3033 35.3994C31.2236 35.4067 31.1501 35.4454 31.0989 35.5069L30.1809 36.4069C29.9609 37.0619 29.7079 38.2379 29.8339 39.987L32.8189 40.358C33.4309 39.7579 33.9139 39.1949 34.0659 38.8579C34.5299 38.1589 33.1559 35.3259 32.8999 35.2619Z" fill="#DA721E"/>
<path opacity="0.4" d="M31.9813 40.2501L30.1123 40.0181C30.1123 40.0181 29.8013 43.3451 30.8533 46.4681C30.8533 46.4681 32.7933 46.6931 34.1623 46.7751C35.5313 46.8571 35.9363 42.3811 35.9363 42.3811L31.9813 40.2501Z" fill="#182548"/>
<path d="M30.2466 32.0491C30.2466 32.0491 30.9776 30.1741 30.9896 28.8021C31.0016 27.4301 30.3946 24.8461 30.3496 23.1651L32.2356 22.7191L44.5996 23.5771C44.5996 23.5771 45.0906 29.1681 45.0906 30.2661C45.1058 30.9923 45.2319 31.7119 45.4646 32.4001C45.4646 32.4001 43.8866 33.0281 43.8176 33.0401C43.7486 33.0521 32.6586 33.1201 32.3616 33.0401C32.0646 32.9601 31.1386 32.7311 31.1386 32.7311C31.6868 31.708 31.9821 30.5686 31.9996 29.4081C31.9996 29.4081 31.2756 30.9861 30.2466 32.0491Z" fill="#004283"/>
<path d="M35.591 29.761C35.591 29.761 35.219 31.382 34.891 31.743C34.563 32.104 33.709 32.597 33.073 32.761C32.511 32.907 31.59 33.086 31.439 33.126C31.757 35.331 34.731 37.055 38.067 37.055C40.548 37.055 42.699 36.102 43.767 34.707C44.141 34.167 44.51 33.816 44.599 33.507C44.623 33.407 44.656 33.231 44.669 33.125C44.469 33.095 42.762 32.759 41.437 31.753C40.845 31.304 40.703 29.792 40.703 29.792C40.703 29.792 42.861 28.402 43.408 23.192L43.882 19.7L32.788 19.776L32.722 24.42C32.722 24.42 33.554 28.293 35.591 29.761Z" fill="#C29678"/>
<path d="M30.3503 23.1649C30.2168 22.5063 30.1438 21.8369 30.1323 21.1649C30.1323 16.7649 33.6543 12.9319 38.3073 12.9319C43.8983 12.9319 45.3403 18.5679 45.6823 21.7249C46.0823 25.4179 45.1143 28.7249 45.0873 30.2659C45.0603 31.8069 43.4873 24.7299 43.3093 23.3969C43.198 22.3271 43.0051 21.2674 42.7323 20.2269C42.0091 20.4379 41.2715 20.596 40.5253 20.6999L40.1253 19.9679L39.8053 20.7569C39.8053 20.7569 37.3703 20.8709 33.7003 20.2879L32.6483 25.2879L30.3503 23.1649Z" fill="#004283"/>
<path d="M39.5141 30.4861C38.4661 30.7991 37.8571 30.8591 37.2471 30.6811C36.4801 30.4561 35.9541 30.0451 35.5911 29.7611C35.5816 29.8596 35.5581 29.9563 35.5211 30.0481C35.3971 30.5301 35.1321 31.4771 34.8901 31.7431C34.6971 31.9561 34.3201 32.2141 33.9141 32.4241C37.9291 32.4831 39.6151 30.4551 39.5141 30.4861Z" fill="#B28A6F"/>
<path d="M53.8001 46.011C53.8001 41.979 52.0201 39.054 51.0781 37.634C49.9781 35.981 48.2781 34.874 44.6691 33.126C43.2971 35.658 41.7691 37.096 38.0521 37.096C32.6521 37.096 32.5781 35.684 31.4351 33.126C27.8271 34.874 26.1231 35.981 25.0261 37.634C24.0831 39.054 22.3031 41.979 22.3031 46.011C22.3031 46.703 22.1031 49.398 23.4421 51.193C24.6421 52.808 26.0941 53.13 27.8301 52.911L38.0521 51.618L48.2741 52.911C50.0091 53.13 51.4611 52.811 52.6611 51.193C54.0001 49.4 53.8001 46.7 53.8001 46.011Z" fill="#002E65"/>
<path d="M53.7998 46.011C53.7998 41.979 52.0198 39.054 51.0778 37.634C50.8118 37.2335 50.5059 36.8609 50.1648 36.522L41.8828 52.1L48.2768 52.909C50.0118 53.128 51.4638 52.809 52.6638 51.191C53.9998 49.4 53.7998 46.7 53.7998 46.011Z" fill="url(#paint1_linear)"/>
<path d="M29.0562 42.079C28.8642 43.726 28.7942 45.252 28.9562 46.544L28.1562 46.312C28.0672 44.853 28.4182 43.449 29.0562 42.079Z" fill="#182548"/>
<path d="M47.659 41.483C47.299 41.392 45.887 43.129 44.841 44.497L44.953 44.143L46.306 42.143L46.322 42.119C46.3733 42.0575 46.3981 41.9781 46.3909 41.8983C46.3837 41.8185 46.345 41.7448 46.2835 41.6935C46.222 41.6422 46.1426 41.6174 46.0628 41.6246C45.983 41.6318 45.9093 41.6705 45.858 41.732L43.992 43.556L43.959 43.588L43.919 43.666L42.728 45.977L47.579 46.577V46.582C48.191 45.977 48.674 45.418 48.826 45.082C49.289 44.38 47.915 41.548 47.659 41.483Z" fill="#C29678"/>
<path d="M31.3359 47.772L36.2019 51.853L38.6789 51.539L31.3359 47.772Z" fill="#182548"/>
<path d="M37.546 45.327L39.846 45.612L44.674 33.126C44.674 33.126 42.623 37.055 37.9 37.055C33.177 37.055 31.438 33.126 31.438 33.126L35.774 45.106L37.546 45.327Z" fill="white"/>
<defs>
<linearGradient id="paint0_linear" x1="18.8679" y1="11.7681" x2="44.7949" y2="60.5301" gradientUnits="userSpaceOnUse">
<stop stop-color="#182548" stop-opacity="0.5"/>
<stop offset="1" stop-color="#182548" stop-opacity="0"/>
</linearGradient>
<linearGradient id="paint1_linear" x1="53.8128" y1="44.747" x2="41.8828" y2="44.747" gradientUnits="userSpaceOnUse">
<stop stop-color="#003165" stop-opacity="0.6"/>
<stop offset="1" stop-color="#003165" stop-opacity="0"/>
</linearGradient>
</defs>
</svg>
