<svg width="112" height="112" viewBox="0 0 112 112" fill="none" xmlns="http://www.w3.org/2000/svg">
<path d="M95.2729 58.0832L82.9417 49.4965L86.4435 25.2578C86.4577 25.1816 86.4412 25.1028 86.3974 25.0388C86.3537 24.9748 86.2864 24.9307 86.2102 24.9162H86.1897C86.144 24.9116 86.0978 24.9165 86.0541 24.9307C86.0104 24.9448 85.9701 24.9679 85.9358 24.9984L69.2646 39.9784L67.8627 39.0021C67.1117 38.4794 66.2186 38.1992 65.3035 38.1992C64.3885 38.1992 63.4954 38.4794 62.7443 39.0021L35.3342 58.0832C34.767 58.478 34.3035 59.0038 33.9831 59.6161C33.6627 60.2283 33.4948 60.9089 33.4937 61.6V97.3466C33.4937 98.4853 33.946 99.5773 34.7511 100.382C35.5563 101.188 36.6483 101.64 37.787 101.64H92.8201C93.9587 101.64 95.0507 101.188 95.8559 100.382C96.661 99.5773 97.1134 98.4853 97.1134 97.3466V61.6C97.1123 60.9089 96.9444 60.2283 96.6239 59.6161C96.3035 59.0038 95.84 58.478 95.2729 58.0832Z" fill="url(#paint0_linear)"/>
<path d="M26.0307 49.3322L53.4409 30.2399C54.1919 29.7172 55.085 29.437 56.0001 29.437C56.9151 29.437 57.8082 29.7172 58.5592 30.2399L85.9694 49.3322C86.5373 49.7275 87.0013 50.2543 87.3218 50.8676C87.6422 51.4809 87.8097 52.1626 87.8099 52.8546V73.233H24.1902V52.8546C24.1904 52.1626 24.3579 51.4809 24.6783 50.8676C24.9988 50.2543 25.4628 49.7275 26.0307 49.3322Z" fill="#072146"/>
<path d="M55.5969 69.9403L24.1902 55.8469V88.5957C24.1902 89.7344 24.6425 90.8264 25.4477 91.6316C26.2528 92.4367 27.3449 92.8891 28.4835 92.8891H50.9601C52.1878 92.8891 53.3653 92.4013 54.2335 91.5332C55.1017 90.665 55.5894 89.4875 55.5894 88.2597L55.5969 69.9403Z" fill="#004481"/>
<path d="M56.4033 69.9403L87.81 55.8469V88.5957C87.81 89.7344 87.3577 90.8264 86.5525 91.6316C85.7473 92.4367 84.6553 92.8891 83.5167 92.8891H61.0401C59.8123 92.8891 58.6349 92.4013 57.7667 91.5332C56.8985 90.665 56.4108 89.4875 56.4108 88.2597L56.4033 69.9403Z" fill="#004481"/>
<path d="M87.8099 88.2597L58.3614 68.8799C57.6604 68.4183 56.8394 68.1722 56.0001 68.1722C55.1607 68.1722 54.3397 68.4183 53.6387 68.8799L24.1902 88.2597V88.5957C24.1902 89.7343 24.6425 90.8264 25.4477 91.6315C26.2528 92.4367 27.3449 92.889 28.4835 92.889H83.5166C84.6553 92.889 85.7473 92.4367 86.5524 91.6315C87.3576 90.8264 87.8099 89.7343 87.8099 88.5957V88.2597Z" fill="#043263"/>
<path fill-rule="evenodd" clip-rule="evenodd" d="M76.1247 19.1987L41.2815 50.5083C41.2227 50.5619 41.1876 50.6365 41.1837 50.7159C41.1799 50.7954 41.2076 50.8731 41.261 50.932C41.2918 50.971 41.3343 50.9992 41.3823 51.0123L52.8828 55.132L55.8396 57.848L57.6167 56.8288L70.2074 61.3406C70.2777 61.3685 70.3562 61.3677 70.426 61.3384C70.4958 61.3091 70.5513 61.2536 70.5807 61.1838C70.5807 61.1838 70.5807 61.1651 70.59 61.1539C70.5994 61.1427 70.6031 61.1147 70.6106 61.0942L76.6268 19.4544C76.6338 19.4167 76.6333 19.3779 76.6252 19.3404C76.6172 19.3028 76.6018 19.2672 76.5799 19.2356C76.5581 19.2041 76.5302 19.1771 76.4979 19.1564C76.4655 19.1356 76.4294 19.1215 76.3916 19.1147H76.3748C76.3296 19.1107 76.284 19.116 76.241 19.1305C76.1979 19.145 76.1583 19.1682 76.1247 19.1987Z" fill="#2DCCCD"/>
<path fill-rule="evenodd" clip-rule="evenodd" d="M73.2257 25.3269L55.8396 57.8666L57.6167 56.8474C57.6167 56.8474 73.2369 25.3362 73.2257 25.3269Z" fill="#02A5A5"/>
<path opacity="0.25" fill-rule="evenodd" clip-rule="evenodd" d="M73.2257 25.3269L55.8396 57.8666L52.8828 55.1413C52.8828 55.1413 73.2164 25.3157 73.2257 25.3269Z" fill="#028484"/>
<defs>
<linearGradient id="paint0_linear" x1="50.443" y1="43.8554" x2="83.9721" y2="106.915" gradientUnits="userSpaceOnUse">
<stop stop-color="#1C2645" stop-opacity="0.5"/>
<stop offset="1" stop-color="#1C2645" stop-opacity="0"/>
</linearGradient>
</defs>
</svg>