<svg width="80" height="80" viewBox="0 0 80 80" fill="none" xmlns="http://www.w3.org/2000/svg">
<path fill-rule="evenodd" clip-rule="evenodd" d="M38 50H42V46H38V50ZM38 42H42V30H38V42ZM39.999 20C45.6958 20.1262 50.4232 22.0672 54.177 25.823C57.9328 29.5768 59.8738 34.3042 60 40.001C59.8738 45.6958 57.9328 50.4232 54.177 54.179C50.4232 57.9348 45.6958 59.8758 39.999 60C34.3042 59.8758 29.5768 57.9348 25.821 54.179C22.0652 50.4232 20.1242 45.6958 20 40.001C20.1242 34.3042 22.0652 29.5768 25.821 25.823C29.5768 22.0672 34.3042 20.1262 39.999 20Z" fill="#004481"/>
</svg>
