<svg width="109" height="36" viewBox="0 0 109 36" fill="none" xmlns="http://www.w3.org/2000/svg">
<path d="M99.9151 0.000117H9.45944C9.12972 0.000117 8.80395 0.000117 8.4751 0.00191699C8.19982 0.00371699 7.92674 0.00894597 7.64882 0.013347C7.04504 0.0204586 6.44269 0.0736254 5.84699 0.172385C5.25213 0.273295 4.6759 0.46354 4.13779 0.736684C3.60035 1.01214 3.10927 1.37006 2.68237 1.79747C2.25323 2.22368 1.89551 2.71632 1.62296 3.25645C1.34966 3.7955 1.16015 4.37315 1.06098 4.96943C0.960871 5.56497 0.907 6.16737 0.899853 6.77123C0.891509 7.04717 0.890627 7.32402 0.88623 7.6V28.4028C0.890627 28.6822 0.891509 28.9529 0.899853 29.2325C0.907002 29.8363 0.960873 30.4387 1.06098 31.0342C1.15988 31.6308 1.3494 32.2088 1.62296 32.748C1.89538 33.2864 2.25315 33.7771 2.68237 34.2009C3.10765 34.6302 3.59905 34.9884 4.13779 35.2617C4.67589 35.5356 5.25206 35.727 5.84699 35.8295C6.44279 35.9274 7.04508 35.9806 7.64882 35.9886C7.92674 35.9947 8.19982 35.9982 8.4751 35.9982C8.80394 36 9.12974 36 9.45944 36H99.9151C100.238 36 100.567 36 100.89 35.9982C101.164 35.9982 101.445 35.9947 101.719 35.9886C102.321 35.981 102.922 35.9278 103.517 35.8295C104.114 35.7263 104.692 35.5349 105.233 35.2617C105.771 34.9882 106.262 34.6301 106.687 34.2009C107.115 33.7754 107.474 33.2851 107.749 32.748C108.021 32.2084 108.209 31.6305 108.306 31.0342C108.406 30.4386 108.462 29.8364 108.473 29.2325C108.476 28.9529 108.476 28.6822 108.476 28.4028C108.483 28.0758 108.483 27.7506 108.483 27.4184V8.58261C108.483 8.25302 108.483 7.92607 108.476 7.6C108.476 7.32402 108.476 7.04717 108.473 6.77119C108.462 6.16728 108.406 5.56501 108.306 4.9694C108.208 4.37346 108.021 3.79586 107.749 3.25641C107.194 2.17379 106.314 1.29254 105.233 0.736603C104.692 0.464126 104.114 0.273933 103.517 0.172304C102.923 0.0731093 102.321 0.0199239 101.719 0.013221C101.445 0.00882897 101.164 0.00355499 100.89 0.00179999C100.567 0 100.238 0 99.9151 0V0.000117Z" fill="#A6A6A6"/>
<path d="M8.47967 35.2125C8.20571 35.2125 7.93837 35.209 7.66657 35.2029C7.1035 35.1956 6.54174 35.1465 5.98591 35.0561C5.46763 34.9668 4.96555 34.8006 4.49623 34.563C4.03123 34.3274 3.6071 34.0185 3.24011 33.6481C2.8678 33.282 2.55784 32.8575 2.3225 32.3912C2.08458 31.922 1.91992 31.419 1.83426 30.8998C1.74176 30.3419 1.69171 29.7777 1.68455 29.2123C1.67885 29.0225 1.67139 28.3905 1.67139 28.3905V7.60004C1.67139 7.60004 1.67934 6.97778 1.6846 6.79496C1.69145 6.23037 1.74121 5.66713 1.83343 5.1101C1.91925 4.58947 2.08404 4.08502 2.32209 3.61422C2.55656 3.1483 2.8648 2.72343 3.23487 2.35607C3.60451 1.98521 4.02999 1.6747 4.49579 1.43585C4.96403 1.19904 5.46516 1.03402 5.98239 0.946301C6.54005 0.855011 7.10376 0.805655 7.66878 0.798648L8.48011 0.787659H100.886L101.707 0.799089C102.266 0.805748 102.825 0.854663 103.378 0.945419C103.9 1.03424 104.406 1.20041 104.88 1.43848C105.813 1.91984 106.572 2.6814 107.051 3.61641C107.286 4.08397 107.448 4.5843 107.533 5.10044C107.626 5.66203 107.678 6.22971 107.689 6.79892C107.692 7.0538 107.692 7.32758 107.692 7.60004C107.699 7.93754 107.699 8.25878 107.699 8.58265V27.4184C107.699 27.7454 107.699 28.0644 107.692 28.3861C107.692 28.6787 107.692 28.9469 107.688 29.2228C107.678 29.7819 107.626 30.3394 107.534 30.8909C107.45 31.4139 107.287 31.9208 107.049 32.3939C106.812 32.8551 106.504 33.276 106.136 33.6411C105.768 34.0135 105.343 34.3242 104.877 34.5613C104.405 34.8007 103.899 34.9675 103.378 35.0561C102.822 35.147 102.26 35.1961 101.697 35.2029C101.433 35.209 101.158 35.2125 100.89 35.2125L99.9153 35.2143L8.47967 35.2125Z" fill="black"/>
<path fill-rule="evenodd" clip-rule="evenodd" d="M21.7033 7.84833C21.7903 8.98613 21.4308 10.1131 20.7011 10.9899C19.9932 11.8712 18.9205 12.3789 17.7908 12.3672C17.7189 11.2622 18.0889 10.1738 18.8191 9.34197C19.5587 8.49883 20.5885 7.96553 21.7033 7.84833ZM25.2761 14.5338C23.9766 15.3336 23.1769 16.7439 23.1572 18.2707C23.1591 19.9981 24.1926 21.557 25.7821 22.2299C25.4764 23.2239 25.0156 24.1633 24.4168 25.0132C23.6126 26.2173 22.7694 27.3937 21.4311 27.4154C20.7946 27.4301 20.365 27.2469 19.9173 27.056C19.4503 26.8569 18.9637 26.6494 18.2022 26.6494C17.3946 26.6494 16.8862 26.8636 16.3959 27.0701C15.9722 27.2486 15.5619 27.4214 14.9838 27.4454C13.7092 27.4927 12.7352 26.1603 11.9018 24.9675C10.236 22.5315 8.93886 18.1026 10.6778 15.089C11.4944 13.6203 13.0213 12.6882 14.6997 12.634C15.4226 12.6191 16.1162 12.8979 16.7243 13.1424C17.1894 13.3294 17.6044 13.4963 17.9443 13.4963C18.2431 13.4963 18.6466 13.336 19.1168 13.1492C19.8575 12.8549 20.7639 12.4949 21.6874 12.5919C23.1226 12.6369 24.4526 13.3566 25.2761 14.5338Z" fill="white"/>
<path fill-rule="evenodd" clip-rule="evenodd" d="M68.0352 26.1686C66.5653 26.1686 65.4896 25.4409 65.3658 24.3326L63.6553 24.3325C63.7633 26.354 65.4352 27.6328 67.9114 27.6328C70.5579 27.6328 72.2219 26.3232 72.2219 24.2323C72.2219 22.5976 71.2701 21.6765 68.9791 21.1342L67.7489 20.8319C66.3098 20.4759 65.7214 20.011 65.7214 19.2209C65.7214 18.2295 66.6425 17.5483 67.9887 17.5483C69.3348 17.5483 70.2559 18.2215 70.3569 19.3369H72.0437C71.9892 17.4086 70.3718 16.084 68.0124 16.084C65.6284 16.084 63.9495 17.4086 63.9495 19.3369C63.9495 20.8943 64.9013 21.8541 66.9517 22.3498L68.3987 22.6987C69.8458 23.0546 70.457 23.5741 70.457 24.4415C70.457 25.4409 69.4437 26.1686 68.0352 26.1686ZM38.9232 24.4258H34.6671L33.645 27.4466H31.8423L35.8736 16.2704H37.7465L41.7778 27.4466H39.9444L38.9232 24.4258ZM35.1081 23.0318H38.4817L36.8187 18.1293H36.7721L35.1081 23.0318ZM47.0871 27.5318C49.1304 27.5318 50.4844 25.905 50.4844 23.3728C50.4844 20.8477 49.1225 19.213 47.0564 19.213C45.9932 19.1787 44.9973 19.7321 44.4643 20.6535H44.4335V19.2982H42.8161V30.1421H44.4871V26.1062H44.5257C45.0361 27.0334 46.031 27.5871 47.0871 27.5318ZM48.7668 23.3728C48.7668 21.7231 47.915 20.6385 46.6155 20.6385C45.3387 20.6385 44.48 21.7459 44.48 23.3728C44.48 25.0146 45.3387 26.1141 46.6155 26.1141C47.915 26.1141 48.7668 25.0374 48.7668 23.3728ZM56.047 27.5318C58.0903 27.5318 59.4443 25.905 59.4443 23.3728C59.4443 20.8477 58.0824 19.213 56.0162 19.213C54.9531 19.1787 53.9571 19.7321 53.4241 20.6535H53.3934V19.2982H51.776V30.1421H53.447V26.1062H53.4856C53.996 27.0334 54.9908 27.5871 56.047 27.5318ZM57.7266 23.3728C57.7266 21.7231 56.8749 20.6385 55.5753 20.6385C54.2986 20.6385 53.4398 21.7459 53.4398 23.3728C53.4398 25.0146 54.2986 26.1141 55.5753 26.1141C56.8749 26.1141 57.7267 25.0374 57.7266 23.3728ZM75.8282 17.3699V19.2982H77.3763V20.6227H75.8282V25.1148C75.8282 25.8127 76.1382 26.1379 76.8187 26.1379C77.0024 26.1347 77.1859 26.1217 77.3683 26.0992V27.4158C77.0624 27.473 76.7514 27.4989 76.4402 27.4931C74.792 27.4931 74.1493 26.8735 74.1493 25.2932V20.6227H72.9656V19.2982H74.1493V17.3699H75.8282ZM82.1341 19.198C79.7817 19.198 78.2731 20.8091 78.2731 23.3728C78.2731 25.9436 79.7667 27.5476 82.1341 27.5476C84.5023 27.5476 85.9959 25.9436 85.9959 23.3728C85.9959 20.809 84.4944 19.198 82.1341 19.198ZM84.293 23.3729C84.293 21.6142 83.4878 20.5762 82.1338 20.5762C80.7798 20.5762 79.9754 21.6221 79.9754 23.3729C79.9754 25.1386 80.7798 26.1687 82.1338 26.1687C83.4878 26.1687 84.2929 25.1386 84.2929 23.3729H84.293ZM88.9673 19.2983H87.3736L87.3736 27.4466H89.0446V22.6135C88.989 22.1245 89.1496 21.6356 89.4844 21.2752C89.8192 20.9148 90.2946 20.7188 90.7858 20.7388C91.0399 20.7314 91.2935 20.7655 91.5366 20.8399V19.2754C91.3487 19.2333 91.1567 19.2123 90.9641 19.213C90.0455 19.1779 89.2282 19.7924 89.006 20.6852H88.9673V19.2983ZM99.2406 25.0533C99.0159 26.5325 97.5767 27.5476 95.7353 27.5476C93.3671 27.5476 91.8972 25.9594 91.8972 23.4115C91.8972 20.8557 93.375 19.198 95.6651 19.198C97.9174 19.198 99.3337 20.7467 99.3337 23.2173V23.7903H93.584V23.8914C93.5303 24.498 93.7396 25.0985 94.1586 25.5401C94.5776 25.9817 95.1659 26.2218 95.774 26.1994C96.5849 26.2754 97.3494 25.8094 97.6539 25.0533L99.2406 25.0533ZM97.6618 22.6214H93.5919C93.5904 22.0712 93.8086 21.5433 94.1979 21.155C94.5872 20.7666 95.1154 20.55 95.665 20.5533C96.2103 20.5416 96.7358 20.7581 97.1148 21.1507C97.4939 21.5432 97.6921 22.0763 97.6618 22.6214Z" fill="white"/>
<path fill-rule="evenodd" clip-rule="evenodd" d="M53.8142 7.21765L52.8808 8.49777H53.7062L54.7511 7.21765H53.8142ZM34.8984 7.85801C35.6078 7.80705 36.3026 8.0772 36.7916 8.59409C37.2807 9.11098 37.5123 9.82013 37.4229 10.5264C37.4229 12.242 36.4965 13.2281 34.8984 13.2281H32.9604V7.85801H34.8984ZM33.7936 12.4687H34.8052C35.3122 12.499 35.8058 12.2991 36.149 11.9244C36.4923 11.5497 36.6486 11.0402 36.5745 10.5373C36.6432 10.0364 36.4846 9.53111 36.1423 9.15949C35.7999 8.78787 35.3095 8.58885 34.8052 8.61686H33.7936V12.4687ZM40.2345 13.3062C41.0258 13.3921 41.7649 12.8982 41.9889 12.1338L41.2198 12.1338C41.028 12.478 40.6474 12.672 40.2565 12.6251C39.955 12.6284 39.6661 12.5043 39.4608 12.2833C39.2555 12.0623 39.1529 11.7648 39.1782 11.4641V11.4193H42.0372V11.1402C42.0372 9.86757 41.3576 9.09717 40.231 9.09717C39.6897 9.09255 39.1731 9.32324 38.8149 9.72946C38.4568 10.1357 38.2923 10.6775 38.3642 11.2145C38.2904 11.75 38.4554 12.2909 38.8156 12.6937C39.1758 13.0965 39.6946 13.3205 40.2345 13.3062ZM39.1781 10.8277H41.2231C41.2435 10.5527 41.1469 10.2818 40.9571 10.0819C40.7673 9.88198 40.502 9.77157 40.2265 9.7779C39.9473 9.7744 39.6785 9.8839 39.4811 10.0816C39.2838 10.2792 39.1745 10.5483 39.1781 10.8277ZM46.174 10.2358C46.0959 9.52124 45.5005 9.09717 44.59 9.09717C43.675 9.09717 43.0173 9.60298 43.0173 10.3215C43.0173 10.9244 43.3738 11.2703 44.1439 11.4526L44.8499 11.6165C45.2556 11.7132 45.4452 11.8697 45.4452 12.1114C45.4452 12.4353 45.0914 12.6585 44.5935 12.6585C44.2185 12.7134 43.8546 12.5044 43.7128 12.1527H42.9128C42.9839 12.8707 43.6118 13.3062 44.575 13.3062C45.5418 13.3062 46.2522 12.7965 46.2522 12.0336C46.2522 11.4381 45.8913 11.1068 45.1212 10.9279L44.4486 10.7719C44.0096 10.6713 43.805 10.5188 43.805 10.2767C43.805 9.96026 44.1439 9.74845 44.59 9.74845C45.0431 9.74845 45.3337 9.93828 45.4075 10.2358H46.174ZM49.9795 10.4999C49.8742 10.0657 49.468 9.77335 49.0233 9.81173C48.3542 9.81173 47.945 10.325 47.945 11.1885C47.945 12.067 48.3577 12.5917 49.0233 12.5917C49.4643 12.6428 49.8743 12.3572 49.9795 11.9255H50.7566C50.6497 12.7789 49.8827 13.3915 49.0277 13.3063C48.4797 13.3236 47.952 13.0979 47.5856 12.6897C47.2193 12.2814 47.0516 11.7321 47.1275 11.1886C47.0554 10.6491 47.2247 10.1053 47.5901 9.70217C47.9555 9.29908 48.4798 9.07775 49.0233 9.09722C49.8852 9.01775 50.6537 9.63966 50.7566 10.4999L49.9795 10.4999ZM53.0556 10.8721C52.0924 10.9319 51.5497 11.3524 51.5497 12.0819C51.5511 12.4278 51.6985 12.757 51.9557 12.9881C52.2128 13.2192 52.5556 13.3306 52.8993 13.2948C53.3896 13.3175 53.8542 13.0744 54.1155 12.6585H54.1787V13.228H54.9479V10.459C54.9479 9.60297 54.3754 9.09717 53.3603 9.09717C52.4418 9.09717 51.7877 9.54365 51.706 10.2397H52.4796C52.5683 9.95322 52.8774 9.78931 53.3234 9.78931C53.8696 9.78931 54.1523 10.031 54.1523 10.459V10.8088L53.0556 10.8721ZM54.152 11.7357V11.3969L53.1633 11.4602C52.6057 11.4975 52.3528 11.6874 52.3528 12.0446C52.3528 12.4094 52.6689 12.6216 53.1036 12.6216C53.3609 12.6477 53.6178 12.5681 53.8154 12.4011C54.0131 12.2341 54.1345 11.994 54.152 11.7357ZM56.1992 9.17539H56.9684V9.79677H57.0281C57.2048 9.35423 57.6463 9.07612 58.1213 9.10815C58.241 9.10654 58.3605 9.11773 58.4778 9.14155V9.93084C58.3312 9.89948 58.1817 9.88328 58.0318 9.8825C57.7653 9.85855 57.5011 9.94836 57.3042 10.1298C57.1074 10.3112 56.9963 10.5674 56.9983 10.8352V13.228H56.1992L56.1992 9.17539ZM60.0295 13.6336H59.2116C59.2968 14.3222 59.9514 14.7762 60.9629 14.7762C62.108 14.7762 62.8333 14.1882 62.8333 13.2614V9.17539H62.0676V9.8227H62.0044C61.7472 9.36548 61.2568 9.08989 60.7329 9.10815C59.6985 9.10815 59.0518 9.91941 59.0518 11.1551C59.0518 12.3684 59.6915 13.1682 60.725 13.1682C61.2362 13.1945 61.719 12.9315 61.9745 12.4875H62.0342V13.2654C62.0342 13.8011 61.6399 14.1175 60.9744 14.1175C60.4352 14.1175 60.0972 13.9276 60.0295 13.6336ZM62.0495 11.1512C62.0495 10.3439 61.6324 9.82669 60.9519 9.82669C60.2643 9.82669 59.878 10.3439 59.878 11.1512C59.878 11.9589 60.2643 12.4761 60.9519 12.4761C61.6368 12.4761 62.0495 11.9629 62.0495 11.1512ZM65.3818 10.8721C64.4185 10.9319 63.8759 11.3525 63.8759 12.0819C63.8772 12.4278 64.0247 12.757 64.2818 12.9881C64.539 13.2192 64.8818 13.3306 65.2255 13.2948C65.7158 13.3175 66.1804 13.0744 66.4417 12.6585H66.5049V13.228H67.2741V10.4591C67.2741 9.603 66.7016 9.0972 65.6865 9.0972C64.768 9.0972 64.1138 9.54368 64.0322 10.2398H64.8058C64.8945 9.95325 65.2036 9.78933 65.6496 9.78933C66.1958 9.78933 66.4785 10.031 66.4785 10.4591V10.8089L65.3818 10.8721ZM66.4782 11.7356V11.3968L65.4895 11.4601C64.9319 11.4975 64.679 11.6873 64.679 12.0446C64.679 12.4093 64.9951 12.6216 65.4298 12.6216C65.6871 12.6477 65.944 12.5681 66.1416 12.4011C66.3392 12.2341 66.4607 11.9939 66.4782 11.7356ZM69.3611 7.59338H68.5621V13.228H69.3611V7.59338ZM70.4718 11.1999C70.4023 10.4735 70.7503 9.77053 71.3698 9.38577C71.9893 9.00101 72.7731 9.00101 73.3925 9.38577C74.012 9.77053 74.36 10.4735 74.2906 11.1999C74.3613 11.9271 74.0136 12.6315 73.3936 13.0171C72.7736 13.4027 71.9887 13.4027 71.3687 13.0171C70.7487 12.6315 70.401 11.9271 70.4718 11.1999ZM72.3824 9.80781C73.0743 9.80781 73.4686 10.3215 73.4686 11.2C73.4686 12.082 73.0743 12.5952 72.3824 12.5953C71.6879 12.5953 71.2971 12.0855 71.2971 11.2C71.2971 10.3215 71.6878 9.80781 72.3824 9.80781ZM80.9832 12.1338C80.7592 12.8983 80.0201 13.3922 79.2288 13.3063C78.6889 13.3205 78.1701 13.0965 77.8099 12.6937C77.4497 12.2909 77.2847 11.75 77.3585 11.2145C77.2866 10.6775 77.4511 10.1357 77.8092 9.72948C78.1674 9.32326 78.6841 9.09258 79.2253 9.0972C80.3519 9.0972 81.0315 9.8676 81.0315 11.1402V11.4193H78.1725V11.4641C78.1472 11.7648 78.2498 12.0623 78.4551 12.2833C78.6604 12.5043 78.9493 12.6284 79.2508 12.6251C79.6417 12.6721 80.0223 12.478 80.214 12.1338L80.9832 12.1338ZM80.2175 10.8278H78.1724C78.1688 10.5483 78.2781 10.2792 78.4755 10.0816C78.6729 9.88391 78.9416 9.77441 79.2208 9.77792C79.4963 9.7716 79.7616 9.88201 79.9514 10.0819C80.1412 10.2819 80.2378 10.5527 80.2175 10.8278ZM82.1049 9.17539H82.8741V9.81918H82.9338C83.1414 9.34518 83.6267 9.05523 84.1421 9.09716C84.5411 9.06713 84.9322 9.22036 85.2048 9.51359C85.4774 9.80682 85.602 10.2082 85.5435 10.6045V13.228H84.7444V10.8053C84.7444 10.1541 84.4617 9.83017 83.8707 9.83017C83.6 9.81755 83.3374 9.92388 83.1515 10.1213C82.9657 10.3187 82.8753 10.5875 82.9039 10.8572V13.228H82.1049V9.17539ZM90.6452 13.3063C91.4365 13.3922 92.1756 12.8983 92.3997 12.1338L91.6305 12.1338C91.4387 12.478 91.0581 12.6721 90.6672 12.6251C90.3657 12.6284 90.0768 12.5043 89.8715 12.2833C89.6662 12.0623 89.5636 11.7648 89.5889 11.4641V11.4193H92.4479V11.1402C92.4479 9.8676 91.7683 9.0972 90.6417 9.0972C90.1005 9.09258 89.5838 9.32326 89.2257 9.72948C88.8675 10.1357 88.703 10.6775 88.7749 11.2145C88.7011 11.75 88.8661 12.2909 89.2263 12.6937C89.5865 13.0965 90.1054 13.3205 90.6452 13.3063ZM89.5888 10.8278H91.6339C91.6542 10.5527 91.5576 10.2819 91.3678 10.0819C91.178 9.88201 90.9127 9.7716 90.6372 9.77792C90.358 9.77441 90.0893 9.88391 89.8919 10.0816C89.6945 10.2792 89.5852 10.5483 89.5888 10.8278ZM94.3566 7.59338H93.5575V13.228H94.3566V7.59338Z" fill="white"/>
</svg>
