<svg width="118" height="45" viewBox="0 0 118 45" fill="none" xmlns="http://www.w3.org/2000/svg">
<g clip-path="url(#clip0_559_3488)">
<path d="M37.6742 21.3645C37.6742 19.3647 36.9815 18.1039 35.365 18.1039C34.4414 18.1039 33.6124 18.665 33.005 19.2724V23.7037C33.7925 24.4473 34.4437 24.8075 35.4112 24.8075C36.9191 24.8075 37.6835 23.5467 37.6835 21.3645H37.6742ZM29.3704 32.1161V15.3606H32.7256L32.9958 17.1825C33.7832 16.1018 34.9078 15.1042 36.6905 15.1042C39.4131 15.1042 41.3089 17.1941 41.3089 21.3391C41.3089 25.4841 39.3969 27.5231 36.6536 27.5231C35.0371 27.5231 33.9079 26.9389 33.0097 25.9275V31.5734L29.3704 32.1161Z" fill="#004481"/>
<path d="M50.8303 20.1962C50.6525 18.5082 49.8858 17.7 48.5372 17.7C47.4127 17.7 46.4451 18.4412 46.1749 20.1962H50.8303ZM42.531 21.3646C42.531 16.7093 46.0849 15.1136 48.5603 15.1136C51.0358 15.1136 54.0701 16.3491 54.0701 21.7918V22.3322H46.131C46.3112 24.3112 47.4126 25.0778 48.9182 25.0778C50.2385 25.0584 51.5111 24.5809 52.5183 23.727L53.8668 25.8052C52.4813 26.9991 50.7402 27.6064 48.6504 27.6064C45.5237 27.6064 42.531 26.0084 42.531 21.3716" fill="#004481"/>
<path d="M55.9587 27.3478V15.3607H59.3094L59.5796 17.2497C60.3 16.3052 61.6255 15.1136 63.7177 15.1136C65.7428 15.1136 67.2045 16.1251 67.2045 18.5982V27.3478H63.6045V19.7459C63.6045 18.6652 63.2004 18.1041 62.189 18.1041C61.2214 18.1041 60.3901 18.5982 59.5796 19.2956V27.3478H55.9587Z" fill="#004481"/>
<path d="M77.91 21.3645C77.91 19.3647 77.2172 18.1039 75.6008 18.1039C74.6771 18.1039 73.8458 18.665 73.2385 19.2724V23.7037C74.0259 24.4473 74.6771 24.8075 75.6447 24.8075C77.1526 24.8075 77.9169 23.5467 77.9169 21.3645H77.91ZM69.6177 32.1161V15.3606H72.9522L73.2223 17.1825C74.0098 16.1018 75.1343 15.1042 76.917 15.1042C79.6396 15.1042 81.5354 17.1941 81.5354 21.3391C81.5354 25.4841 79.6234 27.5231 76.8801 27.5231C75.2637 27.5231 74.1368 26.9389 73.2362 25.9275V31.5734L69.6177 32.1161Z" fill="#2DCCCD"/>
<path d="M90.2343 23.7732V21.5449C87.3778 21.8381 86.1632 22.5586 86.1632 23.6601C86.1632 24.4244 86.7036 24.8147 87.491 24.8147C88.7495 24.8147 89.627 24.3875 90.2343 23.7802V23.7732ZM82.6324 24.2974C82.6324 21.5264 84.9717 20 90.2343 19.5728V19.2818C90.2343 18.4043 89.7401 17.8409 88.4355 17.8409C87.0869 17.8409 85.9392 18.4713 84.9486 19.2588L82.9927 17.2867C84.1842 16.1852 85.9831 15.1068 88.9527 15.1068C92.3726 15.1068 93.7674 16.7233 93.7674 19.806V27.3432H90.5022L90.232 25.5883C89.1305 26.8237 87.8258 27.5211 86.0478 27.5211C84.2004 27.5211 82.6301 26.3295 82.6301 24.2882" fill="#2DCCCD"/>
<path d="M95.8132 31.7582L95.5453 28.7423C96.2407 28.9367 96.9593 29.0354 97.6813 29.0356C98.4687 29.0356 98.919 28.7423 99.21 28.0011L99.4409 27.4169L94.9634 15.64L98.5172 15.0996L101.217 23.1518H101.263L103.916 15.3698H107.426L102.381 28.6015C101.57 30.6798 100.469 31.9314 98.0623 31.9314C97.3077 31.9474 96.5533 31.887 95.8109 31.7512" fill="#2DCCCD"/>
<path d="M27.6639 19.0275C27.6639 20.7356 27.1574 22.4054 26.2084 23.8256C25.2594 25.2459 23.9106 26.3528 22.3325 27.0065C20.7544 27.6602 19.0179 27.8312 17.3426 27.498C15.6673 27.1647 14.1285 26.3422 12.9207 25.1344C11.7128 23.9265 10.8903 22.3877 10.5571 20.7124C10.2238 19.0371 10.3949 17.3006 11.0485 15.7225C11.7022 14.1444 12.8091 12.7956 14.2294 11.8466C15.6496 10.8976 17.3194 10.3911 19.0275 10.3911C20.1617 10.3908 21.2849 10.614 22.3329 11.0479C23.3808 11.4818 24.333 12.118 25.135 12.92C25.9371 13.722 26.5732 14.6742 27.0071 15.7221C27.441 16.7701 27.6642 17.8933 27.6639 19.0275Z" fill="#004481"/>
<path d="M24.0734 18.9582C24.0739 19.9879 23.769 20.9945 23.1972 21.8508C22.6255 22.7071 21.8126 23.3746 20.8614 23.7688C19.9102 24.1631 18.8635 24.2663 17.8536 24.0656C16.8438 23.8648 15.9161 23.369 15.1881 22.641C14.46 21.9129 13.9642 20.9853 13.7635 19.9754C13.5627 18.9655 13.666 17.9188 14.0602 16.9676C14.4545 16.0165 15.1219 15.2036 15.9782 14.6318C16.8345 14.0601 17.8412 13.7552 18.8708 13.7556H24.0688L24.0734 18.9582Z" fill="#2DCCCD"/>
<path d="M90.2711 29.8211L88.9457 32.3451C88.939 32.3576 88.929 32.3681 88.9168 32.3754C88.9046 32.3828 88.8906 32.3866 88.8764 32.3866C88.8622 32.3866 88.8482 32.3828 88.836 32.3754C88.8238 32.3681 88.8138 32.3576 88.8071 32.3451L87.4793 29.8211C87.4724 29.8087 87.4624 29.7983 87.4503 29.791C87.4381 29.7838 87.4242 29.7798 87.41 29.7795H86.7681C86.7581 29.7795 86.7482 29.7821 86.7395 29.7871C86.7307 29.792 86.7234 29.7991 86.7183 29.8078C86.7132 29.8164 86.7104 29.8262 86.7102 29.8362C86.71 29.8463 86.7125 29.8562 86.7173 29.865L88.7956 33.7768C88.8024 33.7888 88.8124 33.7987 88.8243 33.8057C88.8363 33.8126 88.8499 33.8162 88.8637 33.8162C88.8775 33.8162 88.8911 33.8126 88.9031 33.8057C88.915 33.7987 88.9249 33.7888 88.9318 33.7768L91.0101 29.865C91.0149 29.8562 91.0173 29.8463 91.0172 29.8362C91.017 29.8262 91.0142 29.8164 91.0091 29.8078C91.0039 29.7991 90.9967 29.792 90.9879 29.7871C90.9792 29.7821 90.9693 29.7795 90.9593 29.7795H90.3404C90.3262 29.7798 90.3124 29.7838 90.3002 29.791C90.2881 29.7983 90.278 29.8087 90.2711 29.8211Z" fill="#004481"/>
<path d="M91.0262 33.19L92.3493 30.6637C92.3568 30.6518 92.3672 30.6419 92.3795 30.6351C92.3918 30.6283 92.4057 30.6247 92.4198 30.6247C92.4338 30.6247 92.4477 30.6283 92.46 30.6351C92.4723 30.6419 92.4827 30.6518 92.4902 30.6637L93.818 33.19C93.8241 33.2025 93.8336 33.2131 93.8455 33.2204C93.8573 33.2278 93.871 33.2316 93.885 33.2315H94.5269C94.5369 33.2316 94.5468 33.229 94.5556 33.224C94.5643 33.2191 94.5716 33.2119 94.5767 33.2033C94.5818 33.1947 94.5846 33.1849 94.5848 33.1748C94.585 33.1648 94.5825 33.1549 94.5777 33.1461L92.4994 29.2343C92.4931 29.2217 92.4834 29.211 92.4713 29.2036C92.4593 29.1962 92.4454 29.1923 92.4313 29.1923C92.4172 29.1923 92.4033 29.1962 92.3913 29.2036C92.3793 29.211 92.3695 29.2217 92.3632 29.2343L90.2849 33.1461C90.2801 33.1549 90.2777 33.1648 90.2778 33.1748C90.278 33.1849 90.2808 33.1947 90.2859 33.2033C90.2911 33.2119 90.2984 33.2191 90.3071 33.224C90.3158 33.229 90.3257 33.2316 90.3357 33.2315H90.9638C90.9781 33.2315 90.992 33.2277 91.0042 33.2203C91.0164 33.213 91.0264 33.2025 91.0331 33.19" fill="#004481"/>
<path d="M81.1013 33.2315H79.9052C79.885 33.2315 79.8656 33.2234 79.8513 33.2091C79.837 33.1949 79.829 33.1755 79.829 33.1553V32.0815C79.829 32.0613 79.837 32.0419 79.8513 32.0276C79.8656 32.0133 79.885 32.0053 79.9052 32.0053H81.1013C81.6717 32.0053 81.9257 32.1669 81.9257 32.6172C81.9257 33.0675 81.6763 33.2315 81.1013 33.2315V33.2315ZM79.9052 30.3634H81.0852C81.5193 30.3634 81.741 30.5482 81.741 30.8922C81.741 31.2363 81.5216 31.421 81.0852 31.421H79.9052C79.8848 31.4204 79.8654 31.4119 79.8512 31.3973C79.8369 31.3826 79.829 31.363 79.829 31.3425V30.4489C79.829 30.4287 79.837 30.4093 79.8513 30.395C79.8656 30.3807 79.885 30.3727 79.9052 30.3727V30.3634ZM81.9604 31.652C82.1032 31.5727 82.2209 31.4549 82.3001 31.312C82.3793 31.1691 82.4168 31.0069 82.4084 30.8438C82.4084 30.2156 81.9188 29.7885 81.226 29.7885H79.2378C79.2278 29.7885 79.2179 29.7904 79.2087 29.7943C79.1994 29.7981 79.191 29.8037 79.1839 29.8108C79.1769 29.8178 79.1712 29.8262 79.1674 29.8355C79.1636 29.8447 79.1616 29.8546 79.1616 29.8647V33.7487C79.1616 33.7587 79.1636 33.7686 79.1674 33.7779C79.1712 33.7871 79.1769 33.7955 79.1839 33.8026C79.191 33.8097 79.1994 33.8153 79.2087 33.8191C79.2179 33.823 79.2278 33.8249 79.2378 33.8249H81.1406C82.092 33.8249 82.5931 33.4162 82.5931 32.6149C82.6067 32.4074 82.5523 32.2012 82.4381 32.0274C82.3239 31.8536 82.1562 31.7218 81.9604 31.652Z" fill="#004481"/>
<path d="M85.1909 33.2315H83.9947C83.9743 33.2315 83.9547 33.2235 83.94 33.2093C83.9253 33.1951 83.9168 33.1757 83.9162 33.1553V32.0815C83.9168 32.0611 83.9253 32.0417 83.94 32.0275C83.9547 32.0132 83.9743 32.0053 83.9947 32.0053H85.1909C85.7612 32.0053 86.0153 32.1669 86.0153 32.6172C86.0153 33.0675 85.7659 33.2315 85.1909 33.2315V33.2315ZM83.9947 30.3634H85.1747C85.6088 30.3634 85.8305 30.5482 85.8305 30.8922C85.8305 31.2363 85.5996 31.421 85.1747 31.421H83.9947C83.9743 31.4204 83.9549 31.4119 83.9407 31.3973C83.9264 31.3826 83.9185 31.363 83.9185 31.3425V30.4489C83.9185 30.4287 83.9265 30.4093 83.9408 30.395C83.9551 30.3807 83.9745 30.3727 83.9947 30.3727V30.3634ZM86.0476 31.652C86.1932 31.5748 86.3138 31.4578 86.3956 31.3148C86.4774 31.1717 86.5168 31.0084 86.5094 30.8438C86.5094 30.2156 86.0199 29.7885 85.3271 29.7885H83.3389C83.3187 29.7885 83.2993 29.7965 83.285 29.8108C83.2707 29.8251 83.2627 29.8444 83.2627 29.8647V33.7487C83.2627 33.7689 83.2707 33.7883 83.285 33.8026C83.2993 33.8169 83.3187 33.8249 83.3389 33.8249H85.2394C86.1908 33.8249 86.6942 33.4162 86.6942 32.6149C86.7076 32.4071 86.6529 32.2007 86.5382 32.0269C86.4236 31.8531 86.2554 31.7214 86.0591 31.652" fill="#004481"/>
<path d="M75.8156 33.0075C75.8156 32.5272 75.5846 32.2963 75.2844 32.2963C75.1787 32.3025 75.0755 32.331 74.9815 32.38C74.8876 32.4289 74.8051 32.4972 74.7395 32.5803V33.437C74.806 33.5201 74.8894 33.5881 74.9841 33.6366C75.0789 33.6852 75.1828 33.7132 75.2891 33.7187C75.5823 33.7187 75.8156 33.5017 75.8156 33.0075V33.0075ZM74.7395 33.6425V33.8735H74.5085V31.4419L74.7395 31.4095V32.3886C74.8089 32.2997 74.8975 32.2276 74.9986 32.1776C75.0998 32.1276 75.2109 32.1011 75.3237 32.1C75.7255 32.1 76.0442 32.3956 76.0442 33.0052C76.0442 33.6148 75.7232 33.9127 75.3168 33.9127C75.2072 33.9106 75.0993 33.8856 74.9999 33.8395C74.9006 33.7934 74.8118 33.7271 74.7395 33.6448" fill="#004481"/>
<path d="M76.2264 34.5247L76.2102 34.3261C76.2926 34.3464 76.3771 34.3565 76.4619 34.3561C76.5444 34.3604 76.6258 34.3354 76.6917 34.2855C76.7576 34.2357 76.8038 34.1642 76.8221 34.0836L76.896 33.892L76.2287 32.1555L76.4596 32.1139L77.0115 33.6079L77.5518 32.137H77.7828L77.03 34.0836C76.9099 34.3954 76.7806 34.5455 76.4457 34.5455C76.3681 34.5475 76.2905 34.5398 76.2148 34.5224" fill="#004481"/>
</g>
<defs>
<clipPath id="clip0_559_3488">
<rect width="97.0279" height="24.1565" fill="white" transform="translate(10.3911 10.3911)"/>
</clipPath>
</defs>
</svg>
