<svg width="198" height="32" viewBox="0 0 198 32" fill="none" xmlns="http://www.w3.org/2000/svg">
<path d="M84.7646 30H85.6338L88.2314 22.9541H87.3086L85.209 28.9453H85.1895L83.0898 22.9541H82.167L84.7646 30ZM89.6572 30.0977C90.3359 30.0977 90.9463 29.7314 91.2441 29.1748H91.2637V30H92.1133V26.4893C92.1133 25.4736 91.3613 24.8242 90.1602 24.8242C88.9639 24.8242 88.2363 25.498 88.1631 26.333L88.1582 26.3867H88.9785L88.9883 26.3428C89.0859 25.8887 89.4961 25.5762 90.1504 25.5762C90.8584 25.5762 91.2637 25.9521 91.2637 26.5723V26.9971L89.8086 27.0801C88.6416 27.1484 87.9678 27.6904 87.9678 28.5547V28.5645C87.9678 29.4873 88.6465 30.0977 89.6572 30.0977ZM88.8369 28.5645V28.5547C88.8369 28.0811 89.2275 27.7783 89.9062 27.7393L91.2637 27.6562V28.0713C91.2637 28.8086 90.6484 29.3604 89.8477 29.3604C89.2373 29.3604 88.8369 29.0527 88.8369 28.5645ZM93.2363 30H94.0859V22.9541H93.2363V30ZM95.7119 24.0625C96.0098 24.0625 96.2441 23.8232 96.2441 23.5303C96.2441 23.2324 96.0098 22.998 95.7119 22.998C95.4189 22.998 95.1797 23.2324 95.1797 23.5303C95.1797 23.8232 95.4189 24.0625 95.7119 24.0625ZM95.2871 30H96.1367V24.9219H95.2871V30ZM99.2031 30.0977C99.9307 30.0977 100.497 29.7314 100.814 29.1406H100.834V30H101.684V22.9541H100.834V25.7715H100.814C100.497 25.1855 99.9062 24.8242 99.1885 24.8242C97.9141 24.8242 97.0449 25.8545 97.0449 27.4561V27.4609C97.0449 29.0625 97.9043 30.0977 99.2031 30.0977ZM99.3691 29.3457C98.4707 29.3457 97.9141 28.6279 97.9141 27.4609V27.4561C97.9141 26.2988 98.4707 25.5762 99.3691 25.5762C100.224 25.5762 100.839 26.3232 100.839 27.4561V27.4609C100.839 28.5986 100.229 29.3457 99.3691 29.3457ZM104.315 30.0977C104.994 30.0977 105.604 29.7314 105.902 29.1748H105.922V30H106.771V26.4893C106.771 25.4736 106.02 24.8242 104.818 24.8242C103.622 24.8242 102.895 25.498 102.821 26.333L102.816 26.3867H103.637L103.646 26.3428C103.744 25.8887 104.154 25.5762 104.809 25.5762C105.517 25.5762 105.922 25.9521 105.922 26.5723V26.9971L104.467 27.0801C103.3 27.1484 102.626 27.6904 102.626 28.5547V28.5645C102.626 29.4873 103.305 30.0977 104.315 30.0977ZM103.495 28.5645V28.5547C103.495 28.0811 103.886 27.7783 104.564 27.7393L105.922 27.6562V28.0713C105.922 28.8086 105.307 29.3604 104.506 29.3604C103.896 29.3604 103.495 29.0527 103.495 28.5645ZM109.955 30.0977C111.103 30.0977 111.938 29.3506 112.074 28.3838L112.079 28.3496H111.244L111.234 28.3887C111.093 28.9551 110.648 29.3457 109.955 29.3457C109.076 29.3457 108.471 28.6475 108.471 27.4658V27.4609C108.471 26.3086 109.062 25.5762 109.945 25.5762C110.692 25.5762 111.103 26.0254 111.229 26.5332L111.239 26.5723H112.069L112.064 26.5332C111.957 25.6641 111.21 24.8242 109.945 24.8242C108.534 24.8242 107.602 25.8496 107.602 27.4512V27.4561C107.602 29.0723 108.515 30.0977 109.955 30.0977ZM113.339 24.0625C113.637 24.0625 113.871 23.8232 113.871 23.5303C113.871 23.2324 113.637 22.998 113.339 22.998C113.046 22.998 112.807 23.2324 112.807 23.5303C112.807 23.8232 113.046 24.0625 113.339 24.0625ZM112.914 30H113.764V24.9219H112.914V30ZM117.26 24.3408L118.329 22.876H117.44L116.605 24.3408H117.26ZM117.025 30.0977C118.427 30.0977 119.374 29.082 119.374 27.4609V27.4512C119.374 25.8301 118.422 24.8242 117.021 24.8242C115.619 24.8242 114.672 25.835 114.672 27.4512V27.4609C114.672 29.0771 115.614 30.0977 117.025 30.0977ZM117.03 29.3457C116.132 29.3457 115.541 28.6572 115.541 27.4609V27.4512C115.541 26.2646 116.137 25.5762 117.021 25.5762C117.919 25.5762 118.505 26.2598 118.505 27.4512V27.4609C118.505 28.6523 117.924 29.3457 117.03 29.3457ZM120.233 30H121.083V27.0117C121.083 26.1475 121.605 25.5762 122.406 25.5762C123.188 25.5762 123.573 26.0303 123.573 26.8555V30H124.423V26.7041C124.423 25.5469 123.778 24.8242 122.665 24.8242C121.894 24.8242 121.376 25.1709 121.103 25.6445H121.083V24.9219H120.233V30Z" fill="#2DCCCD"/>
<path d="M173.859 30H176.228C178.322 30 179.553 28.6963 179.553 26.4746V26.4648C179.553 24.2529 178.312 22.9541 176.228 22.9541H173.859V30ZM174.738 29.209V23.7451H176.169C177.766 23.7451 178.654 24.7168 178.654 26.4746V26.4844C178.654 28.2324 177.766 29.209 176.169 29.209H174.738ZM181.999 30.0977C182.678 30.0977 183.288 29.7314 183.586 29.1748H183.605V30H184.455V26.4893C184.455 25.4736 183.703 24.8242 182.502 24.8242C181.306 24.8242 180.578 25.498 180.505 26.333L180.5 26.3867H181.32L181.33 26.3428C181.428 25.8887 181.838 25.5762 182.492 25.5762C183.2 25.5762 183.605 25.9521 183.605 26.5723V26.9971L182.15 27.0801C180.983 27.1484 180.31 27.6904 180.31 28.5547V28.5645C180.31 29.4873 180.988 30.0977 181.999 30.0977ZM181.179 28.5645V28.5547C181.179 28.0811 181.569 27.7783 182.248 27.7393L183.605 27.6562V28.0713C183.605 28.8086 182.99 29.3604 182.189 29.3604C181.579 29.3604 181.179 29.0527 181.179 28.5645ZM187.185 30.0977C187.351 30.0977 187.531 30.0781 187.639 30.0635V29.375C187.565 29.3799 187.468 29.3945 187.365 29.3945C186.911 29.3945 186.672 29.2432 186.672 28.7012V25.625H187.639V24.9219H186.672V23.5498H185.793V24.9219H185.051V25.625H185.793V28.7061C185.793 29.6777 186.252 30.0977 187.185 30.0977ZM190.51 30.0977C191.911 30.0977 192.858 29.082 192.858 27.4609V27.4512C192.858 25.8301 191.906 24.8242 190.505 24.8242C189.104 24.8242 188.156 25.835 188.156 27.4512V27.4609C188.156 29.0771 189.099 30.0977 190.51 30.0977ZM190.515 29.3457C189.616 29.3457 189.025 28.6572 189.025 27.4609V27.4512C189.025 26.2646 189.621 25.5762 190.505 25.5762C191.403 25.5762 191.989 26.2598 191.989 27.4512V27.4609C191.989 28.6523 191.408 29.3457 190.515 29.3457ZM195.52 30.0977C196.652 30.0977 197.492 29.4727 197.492 28.584V28.5791C197.492 27.8564 197.121 27.4512 196.096 27.2021L195.29 27.0068C194.729 26.8701 194.499 26.6309 194.499 26.2842V26.2793C194.499 25.8301 194.88 25.5322 195.495 25.5322C196.125 25.5322 196.501 25.8594 196.569 26.3525L196.574 26.3867H197.385L197.38 26.3232C197.316 25.4736 196.608 24.8242 195.495 24.8242C194.396 24.8242 193.63 25.4443 193.63 26.3184V26.3232C193.63 27.0557 194.094 27.5 195.051 27.7295L195.856 27.9248C196.433 28.0664 196.623 28.2715 196.623 28.6377V28.6426C196.623 29.1016 196.213 29.3896 195.524 29.3896C194.831 29.3896 194.455 29.0918 194.353 28.584L194.343 28.5352H193.493L193.498 28.5791C193.601 29.4873 194.323 30.0977 195.52 30.0977Z" fill="#2DCCCD"/>
<path d="M111 8H178" stroke="#2DCCCD"/>
<path d="M29 8H95" stroke="#2DCCCD"/>
<path d="M9.88867 30.1172C11.3633 30.1172 12.4912 29.2432 12.7598 27.8955L12.7695 27.8467H11.8809L11.8662 27.8906C11.5586 28.8184 10.875 29.3066 9.88867 29.3066C8.4873 29.3066 7.57422 28.1885 7.57422 26.4746V26.4697C7.57422 24.7559 8.48242 23.6475 9.88867 23.6475C10.8799 23.6475 11.5732 24.1455 11.8467 25L11.8809 25.1074H12.7695L12.7598 25.0586C12.4912 23.7256 11.3535 22.8369 9.88867 22.8369C7.92578 22.8369 6.6709 24.2529 6.6709 26.4697V26.4746C6.6709 28.6914 7.93066 30.1172 9.88867 30.1172ZM15.4111 30.0977C16.1826 30.0977 16.7002 29.751 16.9736 29.2773H16.9932V30H17.8428V24.9219H16.9932V27.9102C16.9932 28.7744 16.4707 29.3457 15.6699 29.3457C14.8887 29.3457 14.5029 28.8916 14.5029 28.0664V24.9219H13.6533V28.2178C13.6533 29.375 14.2979 30.0977 15.4111 30.0977ZM21.041 30.0977C22.1494 30.0977 22.9795 29.4336 23.1455 28.5938L23.1553 28.5449H22.3203L22.3057 28.5889C22.1592 29.0234 21.7051 29.3457 21.0605 29.3457C20.1572 29.3457 19.5811 28.7354 19.5615 27.6904H23.2188V27.3779C23.2188 25.8545 22.374 24.8242 20.9873 24.8242C19.6006 24.8242 18.7021 25.9033 18.7021 27.4756V27.4805C18.7021 29.0771 19.5811 30.0977 21.041 30.0977ZM20.9824 25.5762C21.7246 25.5762 22.2715 26.04 22.3545 27.0264H19.5762C19.6689 26.0791 20.2451 25.5762 20.9824 25.5762ZM24.0781 30H24.9277V27.0117C24.9277 26.1475 25.4502 25.5762 26.251 25.5762C27.0322 25.5762 27.418 26.0303 27.418 26.8555V30H28.2676V26.7041C28.2676 25.5469 27.623 24.8242 26.5098 24.8242C25.7383 24.8242 25.2207 25.1709 24.9473 25.6445H24.9277V24.9219H24.0781V30ZM31.002 30.0977C31.168 30.0977 31.3486 30.0781 31.4561 30.0635V29.375C31.3828 29.3799 31.2852 29.3945 31.1826 29.3945C30.7285 29.3945 30.4893 29.2432 30.4893 28.7012V25.625H31.4561V24.9219H30.4893V23.5498H29.6104V24.9219H28.8682V25.625H29.6104V28.7061C29.6104 29.6777 30.0693 30.0977 31.002 30.0977ZM33.7559 30.0977C34.4346 30.0977 35.0449 29.7314 35.3428 29.1748H35.3623V30H36.2119V26.4893C36.2119 25.4736 35.46 24.8242 34.2588 24.8242C33.0625 24.8242 32.335 25.498 32.2617 26.333L32.2568 26.3867H33.0771L33.0869 26.3428C33.1846 25.8887 33.5947 25.5762 34.249 25.5762C34.957 25.5762 35.3623 25.9521 35.3623 26.5723V26.9971L33.9072 27.0801C32.7402 27.1484 32.0664 27.6904 32.0664 28.5547V28.5645C32.0664 29.4873 32.7451 30.0977 33.7559 30.0977ZM32.9355 28.5645V28.5547C32.9355 28.0811 33.3262 27.7783 34.0049 27.7393L35.3623 27.6562V28.0713C35.3623 28.8086 34.7471 29.3604 33.9463 29.3604C33.3359 29.3604 32.9355 29.0527 32.9355 28.5645Z" fill="#2DCCCD"/>
<circle cx="21" cy="8" r="8" fill="#2DCCCD"/>
<path fill-rule="evenodd" clip-rule="evenodd" d="M15.9231 8.37066L16.6782 7.62943L19.3094 10.2145L25.3219 4.30774L26.0769 5.04389L20.1014 10.9142L19.3094 11.6924L15.9231 8.37066Z" fill="white"/>
<circle cx="103" cy="8" r="8" fill="#2DCCCD"/>
<path fill-rule="evenodd" clip-rule="evenodd" d="M97.9231 8.37066L98.6781 7.62943L101.309 10.2145L107.322 4.30774L108.077 5.04389L102.101 10.9142L101.309 11.6924L97.9231 8.37066Z" fill="white"/>
<circle cx="185" cy="8" r="8" fill="#2DCCCD"/>
<path fill-rule="evenodd" clip-rule="evenodd" d="M179.923 8.37066L180.678 7.62943L183.309 10.2145L189.322 4.30774L190.077 5.04389L184.101 10.9142L183.309 11.6924L179.923 8.37066Z" fill="white"/>
</svg>
