<svg width="112" height="112" viewBox="0 0 112 112" fill="none" xmlns="http://www.w3.org/2000/svg">
<path d="M104.328 59.4533C104.328 83.4213 84.8962 102.853 60.9282 102.853C36.9602 102.853 17.5469 83.4213 17.5469 59.4533C17.5469 35.4854 36.9789 16.072 60.9469 16.072C84.9149 16.072 104.328 35.504 104.328 59.4533Z" fill="url(#paint0_linear)"/>
<path d="M95.2935 50.1013C95.2935 74.1813 75.7868 93.7067 51.7255 93.7067C27.6641 93.7067 8.12012 74.2187 8.12012 50.1573C8.12012 26.096 27.6081 6.55201 51.6694 6.53334C75.7308 6.51467 95.2748 26.0213 95.2935 50.1013Z" fill="#28AD68"/>
<path d="M42.7093 69.5706C41.72 69.5706 40.768 69.1786 40.0773 68.4693L26.656 55.0479C25.2 53.5919 25.2 51.2213 26.656 49.7653C28.112 48.3093 30.4826 48.3093 31.9386 49.7653L42.728 60.5546L71.4933 31.7706C72.9493 30.3146 75.32 30.3146 76.776 31.7706C78.232 33.2266 78.232 35.5973 76.776 37.0533L45.3413 68.4693C44.6506 69.1786 43.6986 69.5706 42.7093 69.5706Z" fill="white"/>
<defs>
<linearGradient id="paint0_linear" x1="43.8339" y1="27.2923" x2="79.5152" y2="94.399" gradientUnits="userSpaceOnUse">
<stop stop-color="#192647" stop-opacity="0.5"/>
<stop offset="1" stop-color="#192647" stop-opacity="0"/>
</linearGradient>
</defs>
</svg>
