<svg xmlns="http://www.w3.org/2000/svg" width="48" height="48" viewBox="0 0 48 48">
    <g fill="none" fill-rule="evenodd">
        <g>
            <g transform="translate(-568 -1110) translate(568 1110)">
                <g fill="#999">
                    <g>
                        <path d="M3.655 8.941l5.533-5.467c.417-.412.417-1.083 0-1.498-.42-.412-1.097-.412-1.513 0L.315 9.249c-.2.2-.315.468-.315.75 0 .283.114.548.314.751l7.36 7.273c.209.209.483.31.757.31s.548-.101.757-.307c.417-.415.417-1.087 0-1.499l-5.533-5.47h15.274C19.52 11.058 20 10.584 20 10c0-.584-.48-1.058-1.07-1.058H3.654z" transform="translate(14 14)"/>
                    </g>
                </g>
                <rect width="47" height="47" x=".5" y=".5" stroke="#999" rx="4"/>
            </g>
        </g>
    </g>
</svg>