<svg xmlns="http://www.w3.org/2000/svg" xmlns:xlink="http://www.w3.org/1999/xlink" width="16" height="16" viewBox="0 0 16 16">
    <defs>
        <path id="fkifb6qvoa" d="M0 0L8.743 0 8.743 15.652 0 15.652z"/>
    </defs>
    <g fill="none" fill-rule="evenodd">
        <g>
            <g>
                <g>
                    <g transform="translate(-496 -880) translate(480 860) translate(16 20) translate(4)">
                        <mask id="dyzh1puchb" fill="#fff">
                            <use xlink:href="#fkifb6qvoa"/>
                        </mask>
                        <path fill="#999" d="M5.381 15.652c-1.854 0-3.362-1.516-3.362-3.378V6.321c0-1.332 1.078-2.416 2.404-2.416 1.325 0 2.404 1.084 2.404 2.416v5.41c0 .288-.233.522-.52.522-.286 0-.519-.234-.519-.522v-5.41c0-.756-.612-1.372-1.365-1.372s-1.365.616-1.365 1.372v5.953c0 1.287 1.042 2.335 2.323 2.335 1.282 0 2.324-1.048 2.324-2.335V4.392c0-1.846-1.496-3.349-3.333-3.349-1.838 0-3.334 1.503-3.334 3.35v3.146c0 .288-.232.522-.519.522-.286 0-.52-.234-.52-.522V4.392C0 1.971 1.962 0 4.373 0c2.41 0 4.371 1.97 4.371 4.392v7.882c0 1.862-1.508 3.378-3.362 3.378" mask="url(#dyzh1puchb)"/>
                    </g>
                </g>
            </g>
        </g>
    </g>
</svg>
