<svg width="16" height="16" viewBox="0 0 16 16" fill="none" xmlns="http://www.w3.org/2000/svg">
<path fill-rule="evenodd" clip-rule="evenodd" d="M7.20003 12H8.80003V10.4H7.20003V12ZM7.20003 8.8H8.80003V4H7.20003V8.8ZM7.9996 0C10.2783 0.0504782 12.1693 0.826882 13.6708 2.32921C15.1731 3.83074 15.9495 5.72167 16 8.0004C15.9495 10.2783 15.1731 12.1693 13.6708 13.6716C12.1693 15.1739 10.2783 15.9503 7.9996 16C5.72167 15.9503 3.83074 15.1739 2.32841 13.6716C0.82608 12.1693 0.049677 10.2783 0 8.0004C0.049677 5.72167 0.82608 3.83074 2.32841 2.32921C3.83074 0.826882 5.72167 0.0504782 7.9996 0Z" fill="#4527A0"/>
</svg>
