<svg width="97" height="32" viewBox="0 0 97 32" fill="none" xmlns="http://www.w3.org/2000/svg">
<path fill-rule="evenodd" clip-rule="evenodd" d="M49.21 6.0991C50.8881 6.0991 52.2494 4.73316 52.2494 3.04955C52.2494 1.36284 50.8881 0 49.21 0C47.5299 0 46.1709 1.36284 46.1709 3.04955C46.1709 4.73316 47.5299 6.0991 49.21 6.0991ZM14.4857 28.7318L20.8175 12.4157C21.1688 11.5107 21.0562 10.5329 20.511 9.72952C19.9634 8.92746 19.0949 8.46888 18.1274 8.46888C16.9274 8.46888 15.8719 9.19249 15.4347 10.3135L10.51 23.0036L5.58445 10.3135C5.15032 9.19249 4.09254 8.46888 2.89485 8.46888C1.92271 8.46888 1.05318 8.92746 0.508984 9.72952C-0.0393251 10.5329 -0.149656 11.5107 0.202425 12.418L6.53396 28.7318C7.17639 30.3899 8.73928 31.4617 10.51 31.4617C12.2827 31.4617 13.8425 30.3899 14.4857 28.7318ZM29.7514 28.5629V11.3673C29.7514 9.76733 28.4557 8.46901 26.8628 8.46901C25.2706 8.46901 23.9749 9.76733 23.9749 11.3673V28.5629C23.9749 30.1604 25.2706 31.4615 26.8628 31.4615C28.4557 31.4615 29.7514 30.1604 29.7514 28.5629ZM51.9994 11.3673V22.4285C51.9994 27.653 47.7623 31.9023 42.5582 31.9023C37.3537 31.9023 33.1169 27.653 33.1169 22.4285V11.3673C33.1169 9.76733 34.4133 8.46901 36.0055 8.46901C37.6001 8.46901 38.8934 9.76733 38.8934 11.3673V22.4285C38.8934 24.4548 40.5389 26.1059 42.5582 26.1059C44.5774 26.1059 46.2228 24.4548 46.2228 22.4285V11.3673C46.2228 9.76733 47.5162 8.46901 49.1107 8.46901C50.7037 8.46901 51.9994 9.76733 51.9994 11.3673Z" fill="white"/>
<path fill-rule="evenodd" clip-rule="evenodd" d="M35.9062 6.0991C37.584 6.0991 38.9453 4.73316 38.9453 3.04955C38.9453 1.36284 37.584 0 35.9062 0C34.2258 0 32.8668 1.36284 32.8668 3.04955C32.8668 4.73316 34.2258 6.0991 35.9062 6.0991ZM86.6473 7.4936V28.8306C86.6473 30.5235 85.2737 31.9026 83.5856 31.9026C81.8954 31.9026 80.5241 30.5235 80.5241 28.8306V17.0379L73.858 30.2193C73.3328 31.2572 72.2858 31.9026 71.1275 31.9026C69.7261 31.9026 68.4605 31.121 67.8273 29.8688L61.3405 17.0379V28.8306C61.3405 30.5235 59.9658 31.9026 58.2787 31.9026C56.5877 31.9026 55.2165 30.5235 55.2165 28.8306V7.4936C55.2165 5.36457 56.9421 3.6327 59.0649 3.6327C60.5234 3.6327 61.8376 4.44173 62.498 5.74702L70.9323 22.4237L79.3634 5.74702C80.0244 4.44173 81.3401 3.6327 82.7965 3.6327C84.9193 3.6327 86.6473 5.36457 86.6473 7.4936ZM95.8172 11.8084V29.004C95.8172 30.6014 94.5215 31.9026 92.9285 31.9026C91.3363 31.9026 90.0407 30.6014 90.0407 29.004V11.8084C90.0407 10.2076 91.3363 8.91004 92.9285 8.91004C94.5215 8.91004 95.8172 10.2076 95.8172 11.8084Z" fill="#1DE9B6"/>
</svg>
