<svg width="240" height="178" viewBox="0 0 240 178" fill="none" xmlns="http://www.w3.org/2000/svg">
<g clip-path="url(#clip0_20_3866)">
<path d="M2.58325 85.8125C6.373 100.456 14.3889 113.115 27.0563 119.251C53.3903 132.003 112.781 125.427 157.106 117.877C180.034 113.972 200.187 103.196 214.827 88.031L2.58325 85.8125Z" fill="#E6E6E6"/>
<path d="M235.021 16.8828H210.701C209.547 16.8828 208.6 16.0277 208.6 14.9828C208.6 13.9379 209.547 13.0806 210.701 13.0806H214.907C213.751 13.0806 212.806 12.2255 212.806 11.1785C212.806 10.1314 213.751 9.27849 214.907 9.27849H211.905C210.749 9.27849 209.802 8.42338 209.802 7.37631C209.802 6.32925 210.749 5.47633 211.905 5.47633H224.599C221.782 4.29183 218.49 3.44982 214.696 3.007C180.082 -1.0133 167.724 1.64581 163.365 4.37909C157.932 7.8284 151.896 10.2218 145.575 11.4337C124.22 15.4191 84.2821 20.2138 48.0843 9.90672C30.0933 4.77392 16.7212 13.4362 8.70752 27.9163H239.245C238.944 23.7084 238.043 19.8211 236.389 16.4204C235.998 16.7227 235.516 16.8855 235.021 16.8828Z" fill="#E6E6E6"/>
<path d="M0.521438 55.2469C-0.412699 63.7634 -0.0951585 72.3707 1.46397 80.7953L214.99 87.8608C220.868 81.7657 225.862 74.8767 229.826 67.395L0.521438 55.2469ZM84.9737 73.4724H80.7694C81.9258 73.4724 82.8727 74.3297 82.8727 75.3746C82.8727 76.4194 81.9258 77.2745 80.7694 77.2745H56.4492C55.295 77.2745 54.3481 76.4194 54.3481 75.3746C54.3481 74.3297 55.295 73.4724 56.4492 73.4724H60.6556C59.4993 73.4724 58.5546 72.6173 58.5546 71.5724C58.5546 70.5275 59.4993 69.6702 60.6556 69.6702H57.6513C56.495 69.6702 55.5481 68.8151 55.5481 67.7702C55.5481 66.7254 56.495 65.8681 57.6513 65.8681H81.9716C83.1279 65.8681 84.0726 66.7232 84.0726 67.7702C84.0726 68.8173 83.1279 69.6702 81.9716 69.6702H84.9737C86.1301 69.6702 87.0748 70.5253 87.0748 71.5724C87.0748 72.6195 86.1301 73.4724 84.9737 73.4724Z" fill="#E6E6E6"/>
<path d="M239.254 28.0472L6.13517 33.1734C3.29886 39.7678 1.41817 47.2238 0.552002 54.9502H235.17C236.696 50.4298 237.829 45.7858 238.556 41.0701C239.256 36.5306 239.535 32.1395 239.254 28.0472ZM47.8835 44.8548H43.6792C44.8356 44.8548 45.7824 45.7121 45.7824 46.7569C45.7824 47.8018 44.8356 48.6591 43.6792 48.6591H19.3589C18.2048 48.6591 17.2579 47.8018 17.2579 46.7569C17.2579 45.7121 18.2048 44.8548 19.3589 44.8548H23.5654C22.4091 44.8548 21.4643 43.9997 21.4643 42.9548C21.4643 41.9099 22.4091 41.0526 23.5654 41.0526H20.5611C19.4047 41.0526 18.4579 40.1975 18.4579 39.1526C18.4579 38.1077 19.4047 37.2505 20.5611 37.2505H44.8814C46.0377 37.2505 46.9824 38.1056 46.9824 39.1526C46.9824 40.1997 46.0377 41.0526 44.8814 41.0526H47.8835C49.0398 41.0526 49.9846 41.9099 49.9846 42.9548C49.9846 43.9997 49.0398 44.8548 47.8835 44.8548Z" fill="#E6E6E6"/>
<path d="M118.924 171.336C172.784 171.336 216.445 167.32 216.445 162.366C216.445 157.412 172.784 153.396 118.924 153.396C65.0649 153.396 21.4032 157.412 21.4032 162.366C21.4032 167.32 65.0649 171.336 118.924 171.336Z" fill="#E6E6E6"/>
<path d="M184.105 71.76C183.887 69.7444 181.705 68.0058 182.36 66.0884C182.715 65.0435 183.828 64.4044 184.203 63.366C184.452 62.6811 184.341 61.9285 184.343 61.1999C184.345 60.4713 184.515 59.6577 185.122 59.2541C186.431 58.3816 188.115 60.1768 189.642 59.8104C190.012 59.6841 190.371 59.531 190.718 59.3523C192.5 58.6433 194.516 59.9347 195.518 61.5664C196.519 63.1981 196.895 65.1439 197.754 66.8584C198.048 67.5205 198.502 68.0987 199.076 68.5403C199.67 68.9504 200.481 69.1053 201.123 68.7781L203.621 74.3406C204.276 75.7738 205.026 77.3269 206.457 77.9573C207.099 78.2387 207.814 78.302 208.478 78.531C209.198 78.7853 209.84 79.2243 210.338 79.8043C210.835 80.3843 211.172 81.0849 211.314 81.8358C211.399 82.3245 211.401 82.8306 211.574 83.2952C212.13 84.796 214.043 85.1319 215.438 85.9129C216.244 86.3675 216.92 87.0218 217.401 87.8129C217.619 88.1902 217.807 88.6854 217.573 89.0562C217.152 89.7368 215.872 89.3355 215.466 90.027C215.261 90.376 215.405 90.8123 215.466 91.2136C215.664 92.83 213.803 94.3112 212.272 93.7571C212.086 94.7977 211.835 95.9385 210.993 96.5689C210.088 97.2452 208.746 97.0663 207.832 96.4032C206.918 95.74 206.363 94.6908 205.966 93.6328C205.484 92.3458 205.124 90.893 204.027 90.0662C203.63 89.7696 203.154 89.5776 202.766 89.2787C201.893 88.6112 201.457 87.5096 201.145 86.4429C200.741 85.1123 200.42 83.7446 199.836 82.4881C199.251 81.2316 198.326 80.0624 197.058 79.4887C195.869 78.9542 194.499 78.9891 193.271 78.555C191.156 77.809 189.592 76.0312 187.489 75.1935C186.817 74.911 186.179 74.5508 185.591 74.1203C184.533 73.4244 184.245 73.0209 184.105 71.76Z" fill="#3F3D56"/>
<g opacity="0.1">
<path d="M184.302 62.9385C184.347 62.8532 184.386 62.765 184.419 62.6745C184.666 61.9896 184.557 61.237 184.559 60.5084C184.559 60.2654 184.582 60.0229 184.627 59.7842C184.425 60.2152 184.327 60.6873 184.341 61.1628C184.339 61.7496 184.408 62.3648 184.302 62.9385Z" fill="black"/>
<path d="M211.198 95.884C210.293 96.5581 208.951 96.3814 208.037 95.716C207.123 95.0507 206.566 94.0058 206.18 92.9435C205.698 91.6565 205.34 90.2037 204.241 89.3769C203.846 89.0803 203.368 88.8861 202.982 88.5894C202.109 87.9219 201.673 86.8203 201.359 85.7645C200.955 84.4339 200.636 83.0662 200.05 81.8097C199.463 80.5532 198.542 79.384 197.272 78.8103C196.085 78.2758 194.715 78.3107 193.487 77.8766C191.37 77.1306 189.806 75.3528 187.705 74.5151C187.032 74.2317 186.395 73.8716 185.805 73.4419C184.771 72.7286 184.496 72.325 184.343 71.0663C184.125 69.1773 182.205 67.5303 182.504 65.7503C182.455 65.8466 182.412 65.9457 182.375 66.047C181.72 67.9666 183.902 69.7052 184.12 71.7186C184.262 72.9772 184.557 73.3808 185.582 74.0941C186.172 74.5238 186.81 74.884 187.482 75.1674C189.584 76.005 191.148 77.785 193.264 78.5289C194.493 78.9652 195.863 78.9281 197.05 79.4625C198.319 80.0362 199.231 81.2076 199.827 82.4619C200.423 83.7162 200.741 85.0796 201.136 86.4168C201.457 87.4726 201.878 88.5742 202.759 89.2417C203.154 89.5383 203.632 89.7325 204.018 90.0292C205.109 90.8559 205.476 92.3087 205.958 93.5957C206.355 94.6537 206.911 95.7008 207.825 96.3639C208.74 97.027 210.081 97.2059 210.987 96.5319C211.565 96.0956 211.859 95.4303 212.054 94.717C211.881 95.177 211.585 95.5808 211.198 95.884Z" fill="black"/>
<path d="M215.682 89.342C215.599 89.4985 215.562 89.6757 215.577 89.8524C216.07 89.366 217.183 89.6517 217.571 89.0257C217.662 88.871 217.697 88.6904 217.672 88.5131C217.166 88.993 216.053 88.7072 215.682 89.342Z" fill="black"/>
<path d="M212.477 93.0722C212.435 93.2903 212.394 93.5237 212.342 93.7506C213.677 94.1672 215.219 93.0962 215.438 91.7437C214.907 92.7842 213.598 93.4801 212.477 93.0722Z" fill="black"/>
</g>
<path d="M186.924 72.8093C186.924 72.8093 187.65 74.2751 185.506 74.3057C183.361 74.3362 186.887 83.8253 186.887 83.8253L190.452 88.3626L194.887 85.963L195.143 79.3447L195.47 75.3462C195.47 75.3462 191.324 74.0003 192.088 72.2203C192.852 70.4403 186.924 72.8093 186.924 72.8093Z" fill="#FBBEBE"/>
<path d="M199.799 111.498C199.799 111.498 202.417 114.075 205.471 110.656L203.126 108.167H200.159L199.799 111.498Z" fill="#575A89"/>
<path opacity="0.1" d="M200.082 108.167L199.722 111.498C199.722 111.498 202.34 114.075 205.395 110.656" fill="black"/>
<path d="M204.487 108.621C204.487 108.621 205.541 111.385 206.305 112.22C207.068 113.056 208.268 118.837 206.669 118.182C205.07 117.528 202.015 112.657 201.832 111.821C201.649 110.986 201.579 108.621 201.579 108.621H204.487Z" fill="#FBBEBE"/>
<path d="M181.616 122.8L195.723 123.345L194.087 117.382L186.981 117.238L181.616 122.8Z" fill="#575A89"/>
<path opacity="0.1" d="M183.577 122.8L197.686 123.345L196.05 117.382L188.942 117.238L183.577 122.8Z" fill="black"/>
<path d="M186.232 132.645C185.899 133.266 186.027 135.417 186.178 137.008C186.274 138.02 186.379 138.798 186.379 138.798C186.379 138.798 181.105 140.434 180.307 139.017C180.104 138.657 180.003 138.026 179.968 137.287C179.859 135.105 180.307 131.962 180.307 131.962C180.307 131.962 180.088 127.128 179.979 126.655C179.936 126.465 179.868 125.863 179.803 125.211C179.707 124.242 179.615 123.164 179.615 123.164L186.815 119.347C186.815 119.347 186.815 120.062 186.802 121.164C186.762 124.624 186.647 131.881 186.232 132.645Z" fill="#FBBEBE"/>
<path opacity="0.1" d="M186.378 138.798C186.378 138.798 181.105 140.434 180.306 139.017C180.104 138.657 180.003 138.026 179.968 137.287C181.059 137.121 184.38 136.663 186.178 137.007C186.274 138.02 186.378 138.798 186.378 138.798Z" fill="black"/>
<path d="M186.56 166.284H186.477C185.842 166.308 182.233 166.284 182.233 166.284C182.18 166.229 182.131 166.17 182.085 166.109C181.766 165.71 181.555 165.235 181.473 164.731C181.391 164.227 181.44 163.71 181.616 163.23C182.27 161.448 182.342 158.176 182.342 158.176C182.342 158.176 182.597 157.34 182.379 156.867C182.161 156.393 182.305 155.667 182.305 155.667C182.272 155.38 182.198 155.099 182.087 154.832C181.906 154.395 182.124 153.595 182.124 153.595C182.099 152.819 181.977 152.05 181.76 151.304C181.432 150.36 179.032 139.126 179.615 137.78C179.615 137.78 184.705 136.907 186.634 137.562L186.378 146.287C186.378 146.287 185.469 148.905 186.232 149.596C186.996 150.288 186.269 152.432 186.269 152.432C186.269 152.432 186.16 152.831 186.815 154.177C187.469 155.523 186.815 156.14 186.815 156.14V158.721C186.815 158.721 186.306 160.466 186.887 161.884C187.467 163.302 186.815 166.238 186.56 166.284Z" fill="#3F3D56"/>
<path d="M196.55 132.645C196.216 133.266 196.345 135.417 196.495 137.008C196.591 138.02 196.696 138.798 196.696 138.798C196.696 138.798 191.423 140.434 190.624 139.017C190.421 138.657 190.321 138.026 190.286 137.287C190.177 135.105 190.624 131.962 190.624 131.962C190.624 131.962 190.406 127.128 190.297 126.655C190.238 126.399 190.136 123.965 190.055 121.781C189.987 119.919 189.933 118.234 189.933 118.234L197.132 119.347C197.132 119.347 197.132 122.512 197.043 125.765C196.964 128.919 196.818 132.152 196.55 132.645Z" fill="#FBBEBE"/>
<path opacity="0.1" d="M196.696 138.798C196.696 138.798 191.423 140.434 190.624 139.017C190.421 138.657 190.321 138.026 190.286 137.287C191.377 137.121 194.697 136.663 196.495 137.007C196.591 138.02 196.696 138.798 196.696 138.798Z" fill="black"/>
<path d="M196.877 166.284H196.794C196.159 166.308 192.551 166.284 192.551 166.284C192.498 166.229 192.448 166.17 192.402 166.109C192.083 165.71 191.873 165.235 191.791 164.731C191.708 164.227 191.758 163.71 191.933 163.23C192.588 161.439 192.653 158.167 192.653 158.167C192.653 158.167 192.908 157.331 192.69 156.858C192.472 156.385 192.616 155.658 192.616 155.658C192.583 155.371 192.509 155.09 192.398 154.823C192.217 154.387 192.435 153.586 192.435 153.586C192.41 152.81 192.288 152.041 192.071 151.296C191.743 150.351 189.343 139.117 189.926 137.771C189.926 137.771 195.016 136.898 196.945 137.553L196.689 146.278C196.689 146.278 195.78 148.896 196.543 149.588C197.307 150.279 196.58 152.423 196.58 152.423C196.58 152.423 196.471 152.823 197.126 154.168C197.78 155.514 197.126 156.132 197.126 156.132V158.712C197.126 158.712 196.617 160.457 197.198 161.875C197.778 163.293 197.132 166.238 196.877 166.284Z" fill="#3F3D56"/>
<path opacity="0.1" d="M189.76 74.5238C192.592 74.5238 194.887 72.2287 194.887 69.3976C194.887 66.5664 192.592 64.2713 189.76 64.2713C186.929 64.2713 184.633 66.5664 184.633 69.3976C184.633 72.2287 186.929 74.5238 189.76 74.5238Z" fill="black"/>
<path d="M189.76 74.3057C192.592 74.3057 194.887 72.0106 194.887 69.1794C194.887 66.3483 192.592 64.0532 189.76 64.0532C186.929 64.0532 184.633 66.3483 184.633 69.1794C184.633 72.0106 186.929 74.3057 189.76 74.3057Z" fill="#FBBEBE"/>
<path opacity="0.1" d="M179.615 123.164L186.815 119.347C186.815 119.347 186.815 120.062 186.802 121.164C185.75 121.792 184.164 122.737 182.639 123.629C181.81 124.115 181 124.587 180.307 124.982C180.145 125.069 179.977 125.142 179.803 125.2C179.707 124.242 179.615 123.164 179.615 123.164Z" fill="black"/>
<path opacity="0.1" d="M197.132 119.338C197.132 119.338 197.132 122.503 197.043 125.756H197.017C196.479 125.775 195.94 125.758 195.404 125.706C194.464 125.605 193.711 125.357 193.441 124.864C192.893 123.904 191.359 122.682 190.063 121.773C189.996 119.91 189.941 118.226 189.941 118.226L197.132 119.338Z" fill="black"/>
<path d="M195.793 91.615C195.61 93.0349 195.575 94.4699 195.688 95.8971C198.996 98.6238 198.378 104.367 198.378 104.367C198.378 104.367 200.924 116.003 200.379 117.057C199.834 118.11 201.614 124.582 201.614 124.582C200.096 124.87 198.56 125.046 197.017 125.11C196.479 125.129 195.94 125.113 195.405 125.06C194.464 124.96 193.711 124.711 193.441 124.218C192.424 122.438 188.024 119.783 188.024 119.783C188.024 119.783 185.235 121.454 182.639 122.975C181.81 123.461 181 123.932 180.307 124.327C179.744 124.626 179.121 124.796 178.485 124.827C175.398 125.056 171.285 123.123 171.94 122.438C172.74 121.6 176.705 106.913 176.705 106.913C176.705 106.913 178.703 97.8232 180.448 96.5515C180.754 96.3204 180.983 96.0016 181.103 95.6375C181.701 93.9775 180.702 91.3162 180.702 91.3162C180.702 91.3162 175.066 84.3728 175.319 83.9714C175.572 83.57 175.574 81.4279 175.574 81.4279C175.574 81.4279 176.266 78.0468 176.665 76.4107C177.065 74.7747 179.938 74.3733 180.774 74.5195C181.609 74.6656 183.499 75.1739 184.297 74.5195C185.096 73.8651 186.444 74.7747 186.444 74.7747L189.756 75.6865L192.734 73.9414C192.734 73.9414 195.719 74.0941 195.974 74.4933C196.229 74.8925 200.156 75.6582 200.156 75.6582C202.155 77.0019 202.083 83.4021 202.083 83.4021C202.083 83.4021 197.283 87.5816 196.301 89.7281C196.047 90.3311 195.876 90.9659 195.793 91.615Z" fill="#4527A0"/>
<path d="M200.996 82.5164L202.087 83.389L203.215 93.5324L204.341 103.713C204.341 103.713 204.777 104.732 205.142 104.623C205.506 104.514 205.469 110.656 205.469 110.656C205.469 110.656 201.293 108.089 199.796 111.498L198.631 103.277C198.631 103.277 197.139 94.8783 197.176 94.2239C197.213 93.5695 196.412 86.48 196.412 86.48L200.996 82.5164Z" fill="#4527A0"/>
<path d="M176.124 82.9898L175.323 83.9714C175.323 83.9714 175.398 88.1881 174.778 89.2068C174.158 90.2255 176.489 96.1872 177.361 95.8229C178.234 95.4586 180.198 86.1528 180.198 86.0438C180.198 85.9347 176.124 82.9898 176.124 82.9898Z" fill="#575A89"/>
<path d="M176.052 88.9886C176.052 88.9886 173.506 91.5692 173.687 92.806C173.868 94.0429 176.305 97.9279 179.796 95.8403C179.796 95.8403 183.034 89.7521 176.052 88.9886Z" fill="#575A89"/>
<path opacity="0.1" d="M186.477 166.29C185.842 166.314 182.233 166.29 182.233 166.29C182.18 166.235 182.131 166.177 182.085 166.116C183.008 165.802 185.002 165.331 186.477 166.29Z" fill="black"/>
<path opacity="0.1" d="M196.799 166.29C196.164 166.314 192.555 166.29 192.555 166.29C192.502 166.235 192.453 166.177 192.407 166.116C193.325 165.802 195.319 165.331 196.799 166.29Z" fill="black"/>
<path opacity="0.1" d="M182.896 102.347C182.34 107.683 182.523 118.272 182.639 122.975C181.81 123.461 181 123.932 180.307 124.327C179.743 124.626 179.121 124.796 178.485 124.827C178.254 123.404 181.456 108.796 182.896 102.347Z" fill="black"/>
<path opacity="0.1" d="M183.577 99.3196C183.562 99.396 183.298 100.556 182.896 102.347C183.053 100.818 183.272 99.721 183.577 99.3196Z" fill="black"/>
<path opacity="0.1" d="M192.435 98.7438C192.435 98.7438 195.527 118.158 186.372 120.558C186.37 120.549 192.706 119.587 192.435 98.7438Z" fill="black"/>
<path opacity="0.1" d="M197.017 125.11C196.479 125.129 195.94 125.113 195.404 125.06L192.935 98.5147C194.51 99.5443 196.395 118.383 197.017 125.11Z" fill="black"/>
<path opacity="0.1" d="M185.942 66.1647C186.106 66.1517 186.271 66.1687 186.429 66.2149C186.66 66.3303 186.869 66.487 187.044 66.6773C187.328 66.9151 187.669 67.0768 188.033 67.1474C188.397 67.2179 188.772 67.1951 189.125 67.0809C189.374 66.9697 189.638 66.8962 189.909 66.8628C190.325 66.8628 190.685 67.1681 190.901 67.5172C191.117 67.8662 191.228 68.2807 191.414 68.6537C191.599 69.0267 191.896 69.3801 192.304 69.4717C192.5 69.4793 192.692 69.5237 192.871 69.6026C192.981 69.6918 193.065 69.8084 193.116 69.9407C193.456 70.6758 193.727 71.544 194.453 71.9039C194.72 72.0278 195.012 72.0911 195.306 72.0894C195.606 72.1113 195.906 72.0573 196.179 71.9323C196.448 71.7823 196.669 71.5612 196.82 71.2932C197.274 70.5428 197.327 69.6135 197.22 68.7431C197.086 67.6451 196.695 66.5942 196.079 65.6761C195.429 64.7475 194.544 64.008 193.515 63.5332C192.486 63.0583 191.349 62.8651 190.221 62.9733C189.827 63.0176 189.437 63.0905 189.053 63.1915C187.666 63.5623 186.304 64.256 185.462 65.4187C185.258 65.7089 185.035 65.9844 184.792 66.2432C185.174 66.2062 185.558 66.1734 185.942 66.1647Z" fill="black"/>
<path d="M185.942 65.9466C186.106 65.9335 186.271 65.9505 186.429 65.9967C186.66 66.1121 186.869 66.2688 187.044 66.4592C187.328 66.6969 187.669 66.8586 188.033 66.9292C188.397 66.9998 188.772 66.9769 189.125 66.8628C189.374 66.7516 189.638 66.678 189.909 66.6446C190.325 66.6446 190.685 66.95 190.901 67.299C191.117 67.6481 191.228 68.0625 191.414 68.4355C191.599 68.8085 191.896 69.1619 192.304 69.2536C192.5 69.2612 192.692 69.3056 192.871 69.3844C192.981 69.4736 193.065 69.5903 193.116 69.7225C193.456 70.4577 193.727 71.3259 194.453 71.6858C194.72 71.8096 195.012 71.873 195.306 71.8712C195.606 71.8932 195.906 71.8392 196.179 71.7142C196.448 71.5642 196.669 71.343 196.82 71.075C197.274 70.3246 197.327 69.3953 197.22 68.525C197.086 67.427 196.695 66.3761 196.079 65.4579C195.429 64.5294 194.544 63.7899 193.515 63.315C192.486 62.8402 191.349 62.647 190.221 62.7552C189.827 62.7995 189.437 62.8724 189.053 62.9733C187.666 63.3442 186.304 64.0379 185.462 65.2005C185.258 65.4908 185.035 65.7663 184.792 66.0251C185.174 65.988 185.558 65.9553 185.942 65.9466Z" fill="#3F3D56"/>
<path opacity="0.1" d="M180.379 78.1537C180.379 78.1537 180.634 80.1911 179.761 80.6994C178.888 81.2076 180.379 78.1537 180.379 78.1537Z" fill="black"/>
<path opacity="0.1" d="M198.886 93.9338C198.886 93.9338 200.959 90.8799 201.252 91.7524C201.544 92.625 198.886 93.9338 198.886 93.9338Z" fill="black"/>
<path opacity="0.1" d="M199.033 94.9503C199.033 94.9503 201.077 92.4417 201.273 93.4234C201.47 94.405 199.033 94.9503 199.033 94.9503Z" fill="black"/>
<path opacity="0.1" d="M193.028 91.964C192.287 91.9745 191.564 91.7364 190.973 91.2878H190.794C190.182 91.8469 189.378 92.1492 188.549 92.132C188.118 92.142 187.69 92.0644 187.29 91.9039C186.889 91.7434 186.526 91.5034 186.221 91.1983H185.984C185.355 91.7098 184.566 91.9824 183.756 91.9676C182.946 91.9528 182.168 91.6517 181.559 91.1176L180.706 91.1024C180.706 91.1024 181.705 93.7636 181.107 95.4237L195.688 95.6833C195.575 94.2561 195.61 92.8211 195.793 91.4012V91.3816L194.992 91.3663C194.416 91.7657 193.729 91.9747 193.028 91.964Z" fill="black"/>
<path opacity="0.1" d="M193.028 92.4003C192.287 92.4108 191.564 92.1727 190.973 91.7241H190.794C190.182 92.2832 189.378 92.5855 188.549 92.5683C188.118 92.5782 187.69 92.5007 187.29 92.3402C186.889 92.1797 186.526 91.9397 186.221 91.6346H185.984C185.355 92.1461 184.566 92.4186 183.756 92.4039C182.946 92.3891 182.168 92.088 181.559 91.5539L180.706 91.5386C180.706 91.5386 181.705 94.1999 181.107 95.86L195.688 96.1196C195.575 94.6924 195.61 93.2574 195.793 91.8375V91.8179L194.992 91.8026C194.416 92.202 193.729 92.411 193.028 92.4003Z" fill="black"/>
<path d="M193.028 92.1821C192.287 92.1926 191.564 91.9546 190.973 91.5059H190.794C190.182 92.0651 189.378 92.3674 188.549 92.3501C188.118 92.3601 187.69 92.2825 187.29 92.122C186.889 91.9616 186.526 91.7215 186.221 91.4165H185.984C185.355 91.928 184.566 92.2005 183.756 92.1857C182.946 92.171 182.168 91.8698 181.559 91.3358L180.706 91.3205C180.706 91.3205 181.705 93.9818 181.107 95.6418L195.688 95.9014C195.575 94.4743 195.61 93.0393 195.793 91.6193V91.5997L194.992 91.5844C194.416 91.9838 193.729 92.1929 193.028 92.1821Z" fill="#3F3D56"/>
<path opacity="0.1" d="M192.381 77.6367C192.381 77.6367 195.45 77.833 195.47 78.2693C195.49 78.7055 192.381 77.6367 192.381 77.6367Z" fill="black"/>
<path opacity="0.1" d="M184.923 75.7759C184.923 75.7759 181.853 75.9723 181.834 76.4085C181.814 76.8448 184.923 75.7759 184.923 75.7759Z" fill="black"/>
<path opacity="0.1" d="M196.655 84.6956C196.624 84.6738 196.593 84.6564 196.563 84.6367C197.348 85.3435 197.217 86.8879 196.253 88.1618C195.289 89.4358 193.825 89.9658 192.935 89.3943C192.963 89.4183 192.987 89.4445 193.017 89.4685C193.89 90.136 195.417 89.6125 196.425 88.2949C197.433 86.9773 197.532 85.3653 196.655 84.6956Z" fill="black"/>
<path opacity="0.1" d="M179.792 87.9983C179.015 86.5978 179.115 85.0512 179.995 84.4644C179.962 84.4797 179.927 84.4928 179.894 84.5102C178.93 85.0468 178.803 86.6545 179.602 88.103C180.4 89.5514 181.84 90.2844 182.805 89.7565C182.837 89.7381 182.867 89.7177 182.896 89.6954C181.934 90.1317 180.568 89.3987 179.792 87.9983Z" fill="black"/>
<path opacity="0.1" d="M180.83 76.1882L180.549 76.6245L179.831 76.2427L180.208 75.6625C180.458 75.7805 180.672 75.9617 180.83 76.1882Z" fill="black"/>
<path d="M176.27 92.3326C176.27 92.3326 176.909 89.3267 176.052 88.3712C175.195 87.4158 175.469 82.4073 176.779 82.5164C178.088 82.6255 180.051 86.5869 179.724 87.4245C179.397 88.2622 178.16 92.5508 178.16 92.5508L176.27 92.3326Z" fill="#FBBEBE"/>
<path opacity="0.1" d="M196.799 70.6453C196.648 70.9133 196.426 71.1345 196.157 71.2844C195.884 71.4095 195.584 71.4635 195.284 71.4415C194.99 71.4432 194.699 71.3799 194.431 71.2561C193.705 70.894 193.434 70.0258 193.094 69.2928C193.051 69.1606 192.974 69.0418 192.871 68.9482C192.695 68.8678 192.505 68.8212 192.311 68.8107C191.903 68.7191 191.608 68.3636 191.421 67.9927C191.233 67.6219 191.122 67.2118 190.908 66.8562C190.694 66.5007 190.332 66.1887 189.915 66.2018C189.644 66.2377 189.38 66.315 189.132 66.4308C188.779 66.5441 188.403 66.5663 188.039 66.4954C187.675 66.4244 187.335 66.2627 187.05 66.0251C186.875 65.8348 186.667 65.678 186.435 65.5627C186.277 65.5165 186.113 65.4995 185.949 65.5125C185.698 65.5125 185.449 65.5365 185.198 65.5561C185.074 65.7191 184.941 65.8749 184.799 66.0229C185.181 65.9902 185.565 65.9575 185.949 65.9488C186.113 65.9357 186.277 65.9527 186.435 65.9989C186.667 66.1143 186.875 66.271 187.05 66.4614C187.335 66.699 187.675 66.8607 188.039 66.9317C188.403 67.0026 188.779 66.9804 189.132 66.8671C189.38 66.7513 189.644 66.674 189.915 66.6381C190.332 66.6381 190.692 66.9435 190.908 67.2925C191.124 67.6415 191.235 68.056 191.421 68.429C191.606 68.802 191.903 69.1554 192.311 69.247C192.505 69.2575 192.695 69.3041 192.871 69.3844C192.981 69.4737 193.066 69.5903 193.116 69.7226C193.456 70.4577 193.727 71.3259 194.453 71.6858C194.72 71.8096 195.012 71.873 195.306 71.8712C195.606 71.8932 195.906 71.8392 196.179 71.7142C196.448 71.5642 196.67 71.343 196.82 71.075C197.159 70.4584 197.311 69.7565 197.257 69.0551C197.24 69.6152 197.083 70.1622 196.799 70.6453Z" fill="black"/>
<path d="M177.237 94.717C178.321 94.717 179.2 94.1212 179.2 93.3863C179.2 92.6514 178.321 92.0557 177.237 92.0557C176.152 92.0557 175.273 92.6514 175.273 93.3863C175.273 94.1212 176.152 94.717 177.237 94.717Z" fill="#575A89"/>
<path d="M113.232 167.455C150.405 167.455 180.54 137.326 180.54 100.159C180.54 62.993 150.405 32.8636 113.232 32.8636C76.0591 32.8636 45.9243 62.993 45.9243 100.159C45.9243 137.326 76.0591 167.455 113.232 167.455Z" fill="#50E3C2"/>
<path d="M148.549 133.978C148.549 144.601 131.845 134.885 113.937 134.885C96.0289 134.885 77.9158 144.2 77.9158 133.576C77.9158 127.518 83.6888 119.094 91.9708 112.975C98.2107 108.364 105.873 105.061 113.57 105.061C121.486 105.061 129.24 108.636 135.425 113.544C143.232 119.733 148.549 128.049 148.549 133.978Z" fill="#444053"/>
<path d="M135.423 113.54C125.904 112.107 108.687 110.36 91.9707 112.971C98.2106 108.359 105.873 105.057 113.57 105.057C121.484 105.057 129.238 108.632 135.423 113.54Z" fill="#F6F8FB"/>
<path opacity="0.05" d="M77.9156 52.6554C77.9156 52.6554 57.6404 65.615 57.8062 85.8867C57.972 106.158 77.9156 52.6554 77.9156 52.6554Z" fill="black"/>
<path d="M180.514 16.0539C180.514 16.0539 162.143 14.9479 164.31 27.8181C164.31 27.8181 163.873 30.0911 165.942 31.1251C165.942 31.1251 165.974 30.1718 167.825 30.4947C168.484 30.605 169.154 30.6372 169.821 30.5906C170.722 30.5294 171.579 30.1755 172.26 29.5828C172.26 29.5828 177.424 27.4516 179.434 19.0118C179.434 19.0118 180.92 17.1708 180.861 16.6996L177.76 18.0215C177.76 18.0215 178.818 20.2574 177.979 22.116C177.979 22.116 177.878 18.1044 177.283 18.1895C177.163 18.2091 175.672 18.9639 175.672 18.9639C175.672 18.9639 177.494 22.8598 176.109 25.6891C176.109 25.6891 176.63 20.89 175.092 19.2452L172.91 20.5192C172.91 20.5192 175.04 24.5417 173.595 27.8246C173.595 27.8246 173.966 22.79 172.452 20.8289L170.473 22.3712C170.473 22.3712 172.474 26.3369 171.254 29.0593C171.254 29.0593 171.095 23.1979 170.046 22.7551C170.046 22.7551 168.315 24.2821 168.051 24.9081C168.051 24.9081 169.422 27.7854 168.573 29.3036C168.573 29.3036 168.051 25.3989 167.624 25.3771C167.624 25.3771 165.9 27.9643 165.719 29.7399C165.719 29.7399 165.795 27.1004 167.205 25.1306C167.205 25.1306 165.538 25.4164 164.567 26.4984C164.567 26.4984 164.835 24.6682 167.622 24.5089C167.622 24.5089 169.046 22.5457 169.428 22.4279C169.428 22.4279 166.646 22.1945 164.96 22.9427C164.96 22.9427 166.443 21.2172 169.936 22.0003L171.9 20.4079C171.9 20.4079 168.239 19.9062 166.686 20.4603C166.686 20.4603 168.473 18.9333 172.426 20.0458L174.553 18.7741C174.553 18.7741 171.431 18.1022 169.57 18.3378C169.57 18.3378 171.534 17.2798 175.175 18.4272L176.702 17.7445C176.702 17.7445 174.413 17.2951 173.744 17.2253C173.074 17.1555 173.039 16.9679 173.039 16.9679C174.492 16.7316 175.983 16.9046 177.344 17.4674C177.344 17.4674 180.568 16.2567 180.514 16.0539Z" fill="#4527A0"/>
<path d="M161.672 10.3321C161.672 10.3321 153.381 9.83037 154.35 15.646C154.35 15.646 154.156 16.6734 155.087 17.1402C155.087 17.1402 155.1 16.7039 155.938 16.8566C156.236 16.9056 156.538 16.9202 156.839 16.9003C157.247 16.8712 157.634 16.7113 157.943 16.4443C157.943 16.4443 160.276 15.4802 161.183 11.6671C161.183 11.6671 161.855 10.836 161.838 10.6222L160.437 11.2199C160.437 11.2199 160.917 12.2299 160.54 13.0697C160.54 13.0697 160.494 11.257 160.225 11.3006C160.171 11.3006 159.497 11.6497 159.497 11.6497C159.497 11.6497 160.321 13.41 159.7 14.6883C159.7 14.6883 159.935 12.52 159.242 11.7762L158.255 12.3521C158.255 12.3521 159.218 14.1713 158.565 15.6547C158.565 15.6547 158.731 13.3795 158.048 12.4938L157.154 13.1897C157.154 13.1897 158.057 14.9806 157.507 16.2109C157.507 16.2109 157.435 13.5627 156.959 13.362C156.959 13.362 156.178 14.0514 156.058 14.3349C156.058 14.3349 156.678 15.6438 156.294 16.3222C156.294 16.3222 156.058 14.5574 155.858 14.5509C155.858 14.5509 155.079 15.7179 154.998 16.5141C155.035 15.7732 155.266 15.055 155.668 14.4309C155.219 14.5158 154.805 14.7305 154.477 15.0483C154.477 15.0483 154.597 14.2215 155.86 14.1495C155.86 14.1495 156.503 13.2639 156.676 13.2093C156.676 13.2093 155.419 13.1046 154.658 13.4428C154.658 13.4428 155.327 12.6618 156.907 13.0065L157.78 12.2888C157.78 12.2888 156.126 12.0707 155.423 12.3106C155.423 12.3106 156.231 11.6213 158.018 12.1252L158.978 11.5493C158.978 11.5493 157.568 11.2461 156.726 11.3552C156.726 11.3552 157.614 10.8774 159.259 11.3966L159.946 11.0869C159.946 11.0869 158.912 10.884 158.611 10.8534C158.31 10.8229 158.29 10.7378 158.29 10.7378C158.945 10.6289 159.618 10.7044 160.232 10.956C160.232 10.956 161.696 10.4237 161.672 10.3321Z" fill="#4527A0"/>
<path opacity="0.1" d="M234.125 160.196C237.37 160.196 240 159.751 240 159.203C240 158.655 237.37 158.211 234.125 158.211C230.88 158.211 228.249 158.655 228.249 159.203C228.249 159.751 230.88 160.196 234.125 160.196Z" fill="#E6E6E6"/>
<path d="M10.2041 176.707C13.4491 176.707 16.0797 176.262 16.0797 175.714C16.0797 175.166 13.4491 174.722 10.2041 174.722C6.95918 174.722 4.32861 175.166 4.32861 175.714C4.32861 176.262 6.95918 176.707 10.2041 176.707Z" fill="#E6E6E6"/>
<path d="M44.3119 177.952C47.5569 177.952 50.1875 177.508 50.1875 176.96C50.1875 176.411 47.5569 175.967 44.3119 175.967C41.067 175.967 38.4364 176.411 38.4364 176.96C38.4364 177.508 41.067 177.952 44.3119 177.952Z" fill="#E6E6E6"/>
<path d="M221.265 171.323C226.11 171.323 230.038 170.659 230.038 169.84C230.038 169.02 226.11 168.356 221.265 168.356C216.42 168.356 212.492 169.02 212.492 169.84C212.492 170.659 216.42 171.323 221.265 171.323Z" fill="#E6E6E6"/>
<path d="M224.891 167.416C225.292 167.089 225.584 166.649 225.729 166.153C225.836 165.653 225.622 165.051 225.144 164.868C224.607 164.663 224.034 165.036 223.599 165.411C223.165 165.786 222.666 166.214 222.096 166.136C222.389 165.87 222.608 165.534 222.732 165.159C222.856 164.784 222.88 164.383 222.803 163.996C222.778 163.835 222.71 163.684 222.607 163.559C222.308 163.241 221.769 163.376 221.411 163.627C220.277 164.425 219.96 165.965 219.954 167.353C219.84 166.853 219.936 166.332 219.934 165.826C219.932 165.32 219.79 164.735 219.358 164.467C219.09 164.324 218.789 164.253 218.485 164.262C217.975 164.242 217.408 164.292 217.059 164.665C216.622 165.13 216.738 165.906 217.115 166.41C217.493 166.914 218.064 167.241 218.59 167.593C219.013 167.844 219.374 168.188 219.646 168.598C219.678 168.656 219.704 168.717 219.725 168.779H222.921C223.636 168.416 224.299 167.957 224.891 167.416Z" fill="#E6E6E6"/>
<path d="M12.9467 149.125C12.9467 149.125 14.1445 150.691 12.3925 153.052C10.6406 155.412 9.19621 157.414 9.77439 158.889C9.77439 158.889 12.4165 154.496 14.5743 154.432C16.7321 154.369 15.3117 151.767 12.9467 149.125Z" fill="#4527A0"/>
<path opacity="0.1" d="M12.9467 149.125C13.0507 149.276 13.1329 149.442 13.191 149.616C15.2899 152.081 16.407 154.382 14.391 154.439C12.5103 154.494 10.2456 157.853 9.71545 158.701C9.73399 158.767 9.75583 158.832 9.78091 158.896C9.78091 158.896 12.423 154.502 14.5808 154.439C16.7386 154.376 15.3117 151.767 12.9467 149.125Z" fill="black"/>
<path d="M15.1743 151.121C15.1743 151.673 15.111 152.12 15.0347 152.12C14.9583 152.12 14.8972 151.684 14.8972 151.121C14.8972 150.558 14.9736 150.829 15.0521 150.829C15.1307 150.829 15.1743 150.569 15.1743 151.121Z" fill="#FFD037"/>
<path d="M15.9291 151.78C15.4448 152.044 15.0237 152.203 14.9866 152.135C14.9495 152.068 15.3139 151.802 15.7982 151.538C16.2826 151.274 16.0906 151.466 16.1277 151.538C16.1648 151.61 16.4222 151.516 15.9291 151.78Z" fill="#FFD037"/>
<path d="M6.61512 149.125C6.61512 149.125 5.41732 150.691 7.16711 153.052C8.9169 155.412 10.3634 157.414 9.78524 158.889C9.78524 158.889 7.14093 154.496 4.98533 154.432C2.82974 154.369 4.24789 151.767 6.61512 149.125Z" fill="#4527A0"/>
<path opacity="0.1" d="M6.61511 149.125C6.51014 149.276 6.42781 149.441 6.37075 149.616C4.27188 152.081 3.15263 154.382 5.17077 154.439C7.04928 154.494 9.31615 157.853 9.84414 158.701C9.82635 158.767 9.80523 158.832 9.78087 158.896C9.78087 158.896 7.13656 154.502 4.98096 154.439C2.82536 154.376 4.24788 151.767 6.61511 149.125Z" fill="black"/>
<path d="M4.38757 151.121C4.38757 151.673 4.44866 152.12 4.52503 152.12C4.60139 152.12 4.66248 151.684 4.66248 151.121C4.66248 150.558 4.58612 150.829 4.50975 150.829C4.43339 150.829 4.38757 150.569 4.38757 151.121Z" fill="#FFD037"/>
<path d="M3.62171 151.78C4.10607 152.044 4.52933 152.203 4.56642 152.135C4.60351 152.068 4.23916 151.802 3.7548 151.538C3.27045 151.274 3.46026 151.466 3.42535 151.538C3.39045 151.61 3.13736 151.516 3.62171 151.78Z" fill="#FFD037"/>
<path d="M4.76941 158.691C4.76941 158.691 8.12062 158.588 9.13297 157.868C10.1453 157.148 14.2885 156.291 14.5394 157.432C14.7903 158.573 19.575 163.169 15.7918 163.199C12.0086 163.23 7.00137 162.608 5.99339 161.995C4.98541 161.382 4.76941 158.691 4.76941 158.691Z" fill="#A8A8A8"/>
<path opacity="0.2" d="M15.855 162.809C12.0718 162.84 7.06464 162.218 6.05666 161.605C5.28867 161.138 4.98322 159.461 4.88068 158.686H4.76941C4.76941 158.686 4.98759 161.389 5.98902 162.002C6.99046 162.615 12.0042 163.237 15.7874 163.206C16.8783 163.206 17.2557 162.807 17.2361 162.233C17.0834 162.584 16.6688 162.802 15.855 162.809Z" fill="black"/>
<path d="M89.3024 91.3358C90.5831 91.2638 96.6114 90.8101 100.44 88.6265C101.055 88.2648 101.75 88.0603 102.463 88.031C103.68 87.9961 105.081 88.5044 104.184 91.3489C102.731 96.0018 94.2943 101.237 89.058 100.947C84.0225 100.668 78.0488 98.6391 74.1041 91.506C73.7262 90.8197 73.54 90.0443 73.5652 89.2613C73.6111 87.8216 74.1347 86.0176 76.8379 88.0288C80.4902 90.7446 87.4195 91.2595 88.8093 91.3358C88.9736 91.3446 89.1382 91.3446 89.3024 91.3358Z" fill="#444053"/>
<path d="M137.738 91.3358C139.019 91.2638 145.047 90.8101 148.876 88.6265C149.491 88.2648 150.186 88.0603 150.898 88.031C152.116 87.9961 153.517 88.5044 152.62 91.3489C151.167 96.0018 142.73 101.237 137.494 100.947C132.458 100.668 126.484 98.6391 122.54 91.506C122.162 90.8197 121.976 90.0443 122.001 89.2613C122.047 87.8216 122.57 86.0176 125.273 88.0288C128.926 90.7446 135.855 91.2595 137.245 91.3358C137.409 91.3446 137.574 91.3446 137.738 91.3358Z" fill="#444053"/>
</g>
<defs>
<clipPath id="clip0_20_3866">
<rect width="240" height="177" fill="white" transform="translate(0 0.952148)"/>
</clipPath>
</defs>
</svg>
